<svg width="232" height="280" viewBox="0 0 232 280" fill="none" xmlns="http://www.w3.org/2000/svg">
<g clip-path="url(#clip0_160_2)">
<path d="M87.7794 38.8519C85.2834 36.3909 81.5392 35.4534 78.0447 36.3128C74.5502 37.1722 71.8461 39.7894 70.9308 43.0706L64.3578 67.4847L38.5648 60.6488C35.0703 59.7113 31.3261 60.6488 28.7884 63.0316C26.2507 65.4144 25.2523 68.93 26.2507 72.2113L33.531 96.43L7.53003 102.641C4.0355 103.461 1.2898 106.039 0.332964 109.321C-0.623872 112.602 0.416167 116.078 3.03707 118.422L22.257 136L3.03707 153.578C0.416167 155.922 -0.582271 159.438 0.332964 162.719C1.2482 166 4.0355 168.539 7.53003 169.399L33.531 175.571L26.2507 199.789C25.2523 203.071 26.2507 206.586 28.7884 208.969C31.3261 211.352 35.0703 212.289 38.5648 211.352L64.3578 204.516L70.9308 228.93C71.8045 232.211 74.5502 234.789 78.0447 235.688C81.5392 236.586 85.2418 235.61 87.7794 233.188L106.5 215.141L125.221 233.188C127.759 235.61 131.461 236.586 134.956 235.688C138.45 234.789 141.154 232.211 142.069 228.93L148.643 204.516L174.436 211.352C177.93 212.289 181.674 211.352 184.212 208.969C186.75 206.586 187.748 203.071 186.75 199.789L179.469 175.571L205.47 169.399C208.965 168.578 211.711 166 212.667 162.719C213.624 159.438 212.584 155.922 210.005 153.578L190.785 136L210.005 118.422C212.584 116.039 213.624 112.563 212.667 109.282C211.711 106 208.965 103.461 205.47 102.602L179.469 96.43L186.75 72.2113C187.748 68.93 186.75 65.4144 184.212 63.0316C181.674 60.6488 177.93 59.7113 174.436 60.6488L148.643 67.4847L142.028 43.0706C141.154 39.7894 138.409 37.2113 134.914 36.3128C131.419 35.4144 127.717 36.3909 125.221 38.8519L106.5 56.8988L87.7794 38.8519Z" fill="#BF9B6F"/>
</g>
<g clip-path="url(#clip1_160_2)">
<path d="M139.063 42.0036C142.969 46.9851 142.969 55.075 139.063 60.0564L59.0627 162.077C55.1565 167.058 48.8127 167.058 44.9065 162.077L4.90649 111.067C1.00024 106.085 1.00024 97.9952 4.90649 93.0137C8.81274 88.0323 15.1565 88.0323 19.0627 93.0137L52.0002 134.978L124.938 42.0036C128.844 37.0222 135.188 37.0222 139.094 42.0036H139.063Z" fill="#202020"/>
</g>
<path d="M201.797 124.557C201.797 124.557 191.968 105.084 170.261 102.2C148.554 99.3164 133.424 113.379 117.43 120.591C109.067 124.365 99.5122 122.9 90.6323 124.727C62.2392 130.572 51.5453 167.195 63.3704 188.022C73.6077 206.051 91.6504 215.427 119.07 217.591C146.489 219.755 165.744 222.277 190.327 204.598C214.911 186.919 213.262 150.159 201.797 124.557Z" fill="#616161"/>
<path opacity="0.8" d="M201.797 124.557C201.797 124.557 191.968 105.084 170.261 102.2C148.554 99.3164 133.424 113.379 117.43 120.591C109.067 124.365 99.5122 122.9 90.6323 124.727C62.2392 130.572 51.5453 167.195 63.3704 188.022C73.6077 206.051 91.6504 215.427 119.07 217.591C146.489 219.755 165.744 222.277 190.327 204.598C214.911 186.919 213.262 150.159 201.797 124.557Z" fill="white"/>
<path d="M107.326 240.531C124.888 240.531 139.125 236.295 139.125 231.07C139.125 225.844 124.888 221.608 107.326 221.608C89.7637 221.608 75.5269 225.844 75.5269 231.07C75.5269 236.295 89.7637 240.531 107.326 240.531Z" fill="#616161"/>
<path opacity="0.53" d="M107.326 240.531C124.888 240.531 139.125 236.295 139.125 231.07C139.125 225.844 124.888 221.608 107.326 221.608C89.7637 221.608 75.5269 225.844 75.5269 231.07C75.5269 236.295 89.7637 240.531 107.326 240.531Z" fill="white"/>
<path d="M196.699 230.661C196.699 232.25 182.987 233.54 166.071 233.54C149.156 233.54 135.444 232.262 135.444 230.661C135.444 229.059 149.156 227.781 166.071 227.781C182.987 227.781 196.699 229.067 196.699 230.661Z" fill="#616161"/>
<path opacity="0.53" d="M196.699 230.661C196.699 232.25 182.987 233.54 166.071 233.54C149.156 233.54 135.444 232.262 135.444 230.661C135.444 229.059 149.156 227.781 166.071 227.781C182.987 227.781 196.699 229.067 196.699 230.661Z" fill="white"/>
<path d="M137.577 210.426H193.135C195.63 210.426 197.652 208.293 197.652 205.663V106.558C197.652 103.928 195.63 101.796 193.135 101.796L137.577 101.796C135.083 101.796 133.06 103.928 133.06 106.558V205.663C133.06 208.293 135.083 210.426 137.577 210.426Z" fill="#263238" stroke="#263238" stroke-linecap="round" stroke-linejoin="round"/>
<path d="M190.957 105.502H139.75C138.102 105.502 136.765 106.911 136.765 108.65V203.571C136.765 205.31 138.102 206.719 139.75 206.719H190.957C192.606 206.719 193.943 205.31 193.943 203.571V108.65C193.943 106.911 192.606 105.502 190.957 105.502Z" fill="white"/>
<mask id="mask0_160_2" style="mask-type:luminance" maskUnits="userSpaceOnUse" x="136" y="105" width="58" height="102">
<path d="M190.957 105.502H139.75C138.102 105.502 136.765 106.911 136.765 108.65V203.571C136.765 205.31 138.102 206.719 139.75 206.719H190.957C192.606 206.719 193.943 205.31 193.943 203.571V108.65C193.943 106.911 192.606 105.502 190.957 105.502Z" fill="white"/>
</mask>
<g mask="url(#mask0_160_2)">
<path d="M136.765 169.973V203.571C136.765 204.406 137.079 205.207 137.639 205.797C138.199 206.388 138.959 206.719 139.75 206.719H190.957C191.749 206.719 192.509 206.388 193.069 205.797C193.628 205.207 193.943 204.406 193.943 203.571V169.973H136.765Z" fill="#616161"/>
<path opacity="0.53" d="M136.765 169.973V203.571C136.765 204.406 137.079 205.207 137.639 205.797C138.199 206.388 138.959 206.719 139.75 206.719H190.957C191.749 206.719 192.509 206.388 193.069 205.797C193.628 205.207 193.943 204.406 193.943 203.571V169.973H136.765Z" fill="white"/>
<path d="M165.154 146.739C172.852 146.739 179.092 140.159 179.092 132.042C179.092 123.925 172.852 117.345 165.154 117.345C157.456 117.345 151.216 123.925 151.216 132.042C151.216 140.159 157.456 146.739 165.154 146.739Z" fill="#616161"/>
<path opacity="0.53" d="M165.154 146.739C172.852 146.739 179.092 140.159 179.092 132.042C179.092 123.925 172.852 117.345 165.154 117.345C157.456 117.345 151.216 123.925 151.216 132.042C151.216 140.159 157.456 146.739 165.154 146.739Z" fill="white"/>
<path d="M169.525 136.225C169.066 136.228 168.62 136.389 168.256 136.683C167.891 136.978 167.628 137.39 167.505 137.857H161.983C161.883 137.479 161.691 137.136 161.426 136.861C161.16 136.587 160.831 136.391 160.472 136.293V135.629H169.941C170.073 135.63 170.2 135.582 170.301 135.494C170.403 135.406 170.471 135.283 170.495 135.147L171.61 128.962C171.625 128.876 171.623 128.788 171.602 128.703C171.581 128.619 171.543 128.54 171.49 128.473C171.437 128.405 171.371 128.351 171.296 128.315C171.221 128.278 171.139 128.259 171.056 128.259H160.492V125.477C160.491 125.35 160.452 125.226 160.379 125.125C160.306 125.023 160.204 124.95 160.088 124.915L157.025 123.884C156.953 123.853 156.876 123.839 156.798 123.841C156.721 123.843 156.644 123.862 156.574 123.897C156.503 123.932 156.441 123.982 156.389 124.044C156.338 124.105 156.299 124.177 156.276 124.256C156.252 124.334 156.244 124.416 156.252 124.498C156.26 124.579 156.283 124.658 156.322 124.73C156.36 124.801 156.411 124.863 156.473 124.913C156.535 124.962 156.606 124.998 156.682 125.017L159.357 125.912V136.319C159.005 136.429 158.687 136.634 158.433 136.914C158.18 137.194 158 137.539 157.912 137.914C157.824 138.29 157.83 138.683 157.929 139.055C158.029 139.427 158.22 139.766 158.481 140.037C158.743 140.308 159.068 140.502 159.422 140.6C159.777 140.699 160.15 140.698 160.505 140.598C160.859 140.498 161.182 140.302 161.443 140.029C161.704 139.757 161.892 139.418 161.991 139.045H167.501C167.607 139.445 167.816 139.805 168.105 140.086C168.395 140.366 168.753 140.556 169.139 140.633C169.526 140.711 169.925 140.673 170.292 140.523C170.659 140.374 170.979 140.12 171.216 139.789C171.453 139.458 171.597 139.064 171.633 138.651C171.669 138.238 171.594 137.823 171.418 137.452C171.242 137.081 170.971 136.77 170.636 136.553C170.3 136.336 169.914 136.223 169.521 136.225H169.525ZM163.061 129.447H164.677V134.44H163.061V129.447ZM165.808 129.447H167.424V134.44H165.808V129.447ZM169.489 134.444H168.552V129.447H170.39L169.489 134.444ZM161.934 129.447V134.44H160.492V129.447H161.934ZM159.963 139.488C159.768 139.488 159.577 139.427 159.415 139.313C159.253 139.199 159.126 139.036 159.052 138.846C158.977 138.657 158.958 138.448 158.996 138.246C159.034 138.044 159.128 137.859 159.266 137.714C159.403 137.568 159.579 137.469 159.77 137.429C159.961 137.389 160.16 137.41 160.34 137.488C160.52 137.567 160.674 137.7 160.782 137.871C160.89 138.042 160.948 138.243 160.948 138.449C160.948 138.586 160.922 138.723 160.872 138.849C160.822 138.976 160.748 139.092 160.655 139.188C160.562 139.285 160.452 139.361 160.331 139.413C160.21 139.464 160.081 139.49 159.95 139.488H159.963ZM169.537 139.488C169.342 139.488 169.152 139.427 168.99 139.313C168.828 139.199 168.701 139.036 168.627 138.846C168.552 138.657 168.532 138.448 168.571 138.246C168.609 138.044 168.702 137.859 168.84 137.714C168.978 137.568 169.154 137.469 169.345 137.429C169.536 137.389 169.734 137.41 169.915 137.488C170.095 137.567 170.249 137.7 170.357 137.871C170.465 138.042 170.523 138.243 170.523 138.449C170.523 138.586 170.497 138.723 170.447 138.849C170.397 138.976 170.323 139.092 170.23 139.188C170.137 139.285 170.027 139.361 169.906 139.413C169.785 139.464 169.656 139.49 169.525 139.488H169.537Z" fill="#263238"/>
<path d="M172.123 132.037C174.396 132.037 176.24 130.094 176.24 127.696C176.24 125.299 174.396 123.356 172.123 123.356C169.849 123.356 168.006 125.299 168.006 127.696C168.006 130.094 169.849 132.037 172.123 132.037Z" fill="white" stroke="#263238" stroke-width="2" stroke-miterlimit="10"/>
<path d="M170.22 127.198L171.804 129.537L174.656 125.694" stroke="#263238" stroke-width="3" stroke-linecap="round" stroke-linejoin="round"/>
<path d="M179.294 154.62H150.812C150.143 154.62 149.6 155.192 149.6 155.898V163.566C149.6 164.271 150.143 164.844 150.812 164.844H179.294C179.963 164.844 180.506 164.271 180.506 163.566V155.898C180.506 155.192 179.963 154.62 179.294 154.62Z" fill="#616161"/>
<path d="M157.442 158.986C157.378 158.911 157.343 158.814 157.345 158.714V156.941C157.345 156.873 157.345 156.809 157.345 156.762C157.352 156.711 157.362 156.659 157.377 156.609C157.391 156.561 157.416 156.517 157.45 156.481C157.485 156.447 157.526 156.421 157.571 156.405C157.632 156.383 157.696 156.373 157.761 156.375H158.472C158.576 156.368 158.679 156.368 158.783 156.375C158.877 156.391 158.969 156.418 159.058 156.456C159.138 156.492 159.212 156.542 159.276 156.605C159.338 156.676 159.385 156.76 159.413 156.852C159.451 156.964 159.469 157.082 159.466 157.201C159.474 157.321 159.454 157.441 159.409 157.552C159.365 157.662 159.295 157.76 159.207 157.836C158.992 157.994 158.733 158.07 158.472 158.053H158.011V158.692C158.013 158.793 157.978 158.89 157.914 158.965C157.886 159.001 157.85 159.03 157.809 159.05C157.769 159.07 157.725 159.08 157.68 159.08C157.636 159.084 157.592 159.077 157.551 159.061C157.51 159.045 157.472 159.019 157.442 158.986ZM158.355 157.649C158.422 157.654 158.49 157.654 158.557 157.649C158.608 157.637 158.657 157.614 158.698 157.58C158.739 157.548 158.771 157.504 158.787 157.453C158.808 157.385 158.818 157.315 158.815 157.244C158.823 157.187 158.817 157.128 158.8 157.074C158.782 157.019 158.753 156.969 158.714 156.929C158.615 156.868 158.501 156.84 158.387 156.848H157.983V157.67L158.355 157.649Z" fill="black"/>
<path d="M159.906 158.931C159.844 158.859 159.795 158.775 159.764 158.684C159.733 158.592 159.719 158.495 159.724 158.398V157.614C159.717 157.509 159.743 157.405 159.797 157.316C159.823 157.281 159.857 157.253 159.896 157.235C159.934 157.217 159.977 157.21 160.019 157.214C160.059 157.21 160.099 157.218 160.135 157.236C160.171 157.254 160.202 157.282 160.225 157.316C160.274 157.407 160.297 157.51 160.29 157.614V158.39C160.285 158.483 160.314 158.574 160.371 158.645C160.397 158.675 160.429 158.698 160.464 158.714C160.5 158.729 160.538 158.736 160.577 158.735C160.625 158.735 160.673 158.725 160.718 158.704C160.762 158.684 160.802 158.653 160.835 158.616C160.906 158.533 160.944 158.425 160.94 158.313V157.614C160.933 157.509 160.959 157.405 161.013 157.316C161.039 157.281 161.073 157.253 161.112 157.235C161.15 157.217 161.193 157.21 161.235 157.214C161.275 157.21 161.315 157.218 161.351 157.236C161.387 157.254 161.419 157.282 161.441 157.316C161.49 157.407 161.513 157.51 161.506 157.614V158.773C161.513 158.862 161.488 158.95 161.437 159.02C161.408 159.049 161.374 159.071 161.336 159.085C161.299 159.099 161.259 159.105 161.219 159.101C161.033 159.101 160.944 158.99 160.944 158.773V158.748C160.9 158.864 160.824 158.963 160.726 159.033C160.613 159.097 160.486 159.128 160.359 159.122C160.275 159.125 160.191 159.109 160.113 159.076C160.036 159.043 159.965 158.994 159.906 158.931Z" fill="black"/>
<path d="M161.922 158.701V157.508C161.92 157.44 161.942 157.373 161.983 157.321C162.017 157.272 162.067 157.238 162.124 157.227C162.179 157.216 162.235 157.216 162.29 157.227C162.345 157.241 162.394 157.276 162.427 157.325C162.468 157.376 162.489 157.441 162.488 157.508V157.576C162.504 157.529 162.524 157.483 162.548 157.44C162.577 157.395 162.608 157.352 162.641 157.312C162.678 157.269 162.724 157.234 162.774 157.21C162.825 157.184 162.88 157.171 162.936 157.171C162.976 157.17 163.015 157.18 163.049 157.201C163.081 157.214 163.108 157.238 163.126 157.269C163.143 157.298 163.154 157.33 163.158 157.363C163.168 157.398 163.168 157.435 163.158 157.47C163.151 157.503 163.139 157.534 163.122 157.563C163.105 157.595 163.08 157.62 163.049 157.636C163.016 157.653 162.981 157.662 162.944 157.661C162.83 157.661 162.718 157.698 162.625 157.768C162.582 157.802 162.547 157.846 162.524 157.898C162.501 157.949 162.49 158.005 162.492 158.062V158.709C162.499 158.812 162.477 158.915 162.427 159.003C162.401 159.037 162.367 159.062 162.329 159.079C162.291 159.095 162.25 159.101 162.209 159.097C162.019 159.101 161.922 158.969 161.922 158.701Z" fill="black"/>
<path d="M163.901 159.063C163.794 159.026 163.694 158.968 163.607 158.892C163.515 158.809 163.443 158.704 163.396 158.586C163.344 158.451 163.318 158.306 163.32 158.16C163.317 157.982 163.359 157.808 163.441 157.653C163.525 157.508 163.643 157.389 163.784 157.308C163.932 157.226 164.098 157.185 164.265 157.188C164.374 157.188 164.483 157.204 164.588 157.235C164.675 157.261 164.756 157.305 164.827 157.363C164.862 157.394 164.887 157.436 164.899 157.482C164.911 157.524 164.911 157.569 164.899 157.61C164.889 157.648 164.873 157.684 164.851 157.717C164.828 157.747 164.794 157.767 164.758 157.772C164.715 157.776 164.671 157.767 164.633 157.747C164.535 157.687 164.423 157.657 164.31 157.661C164.195 157.662 164.085 157.709 164.002 157.793C163.921 157.894 163.88 158.024 163.889 158.155C163.89 158.238 163.903 158.32 163.93 158.398C163.962 158.476 164.015 158.542 164.083 158.587C164.15 158.633 164.229 158.656 164.31 158.654C164.426 158.653 164.542 158.622 164.645 158.564C164.684 158.551 164.727 158.551 164.766 158.564C164.785 158.566 164.803 158.573 164.819 158.583C164.835 158.593 164.849 158.607 164.859 158.624C164.883 158.659 164.901 158.698 164.911 158.739C164.923 158.782 164.923 158.828 164.911 158.871C164.897 158.918 164.871 158.959 164.835 158.99C164.76 159.047 164.674 159.088 164.584 159.11C164.473 159.139 164.359 159.153 164.245 159.152C164.126 159.145 164.01 159.115 163.901 159.063Z" fill="black"/>
<path d="M165.239 158.701V156.78C165.232 156.674 165.254 156.569 165.303 156.477C165.328 156.443 165.359 156.416 165.396 156.399C165.433 156.382 165.473 156.375 165.513 156.379C165.707 156.379 165.804 156.511 165.804 156.78V157.495C165.869 157.381 165.964 157.29 166.077 157.232C166.191 157.175 166.318 157.153 166.443 157.171C166.518 157.177 166.592 157.195 166.661 157.227C166.73 157.259 166.793 157.303 166.847 157.359C166.903 157.422 166.947 157.495 166.976 157.576C167.009 157.673 167.026 157.775 167.024 157.879V158.701C167.032 158.805 167.009 158.909 166.96 158.999C166.935 159.034 166.901 159.062 166.863 159.08C166.825 159.098 166.783 159.105 166.742 159.101C166.556 159.101 166.463 158.969 166.463 158.701V157.913C166.467 157.82 166.438 157.729 166.382 157.657C166.355 157.627 166.323 157.603 166.286 157.588C166.25 157.573 166.211 157.566 166.172 157.568C166.124 157.567 166.076 157.577 166.032 157.598C165.988 157.618 165.949 157.649 165.917 157.687C165.881 157.728 165.853 157.776 165.834 157.829C165.815 157.881 165.806 157.937 165.808 157.994V158.701C165.816 158.805 165.793 158.909 165.744 158.999C165.719 159.034 165.685 159.062 165.647 159.08C165.609 159.098 165.567 159.105 165.526 159.101C165.34 159.101 165.239 158.969 165.239 158.701Z" fill="black"/>
<path d="M167.509 158.969C167.452 158.912 167.408 158.842 167.381 158.764C167.353 158.686 167.344 158.602 167.352 158.52C167.361 158.437 167.388 158.358 167.43 158.288C167.473 158.218 167.53 158.16 167.598 158.117C167.881 158.013 168.18 157.969 168.479 157.989V157.87C168.479 157.678 168.382 157.58 168.188 157.58C168.012 157.591 167.839 157.637 167.679 157.717C167.651 157.73 167.619 157.734 167.589 157.728C167.559 157.722 167.531 157.706 167.509 157.683C167.486 157.659 167.468 157.629 167.456 157.597C167.445 157.564 167.441 157.53 167.445 157.495C167.445 157.461 167.455 157.428 167.473 157.399C167.491 157.37 167.516 157.348 167.546 157.333C167.647 157.286 167.752 157.252 167.861 157.231C167.98 157.203 168.102 157.188 168.224 157.188C168.329 157.187 168.434 157.2 168.535 157.227C168.624 157.255 168.706 157.301 168.778 157.363C168.853 157.431 168.91 157.517 168.944 157.614C168.982 157.74 168.999 157.871 168.996 158.002V158.799C168.998 158.869 168.982 158.939 168.948 158.999C168.919 159.047 168.874 159.082 168.822 159.097C168.773 159.11 168.722 159.11 168.673 159.097C168.647 159.089 168.623 159.076 168.603 159.059C168.582 159.041 168.564 159.019 168.552 158.995C168.515 158.935 168.496 158.865 168.499 158.794V158.765C168.458 158.885 168.378 158.987 168.273 159.053C168.169 159.119 168.046 159.145 167.925 159.127C167.773 159.131 167.624 159.075 167.509 158.969ZM168.338 158.667C168.384 158.625 168.421 158.572 168.445 158.513C168.47 158.454 168.481 158.39 168.479 158.326V158.249H168.305H168.16C168.118 158.252 168.076 158.26 168.035 158.27C168.002 158.277 167.971 158.289 167.942 158.305C167.913 158.314 167.888 158.332 167.869 158.356C167.852 158.379 167.839 158.405 167.828 158.432C167.822 158.466 167.822 158.501 167.828 158.535C167.828 158.566 167.833 158.597 167.844 158.626C167.855 158.655 167.871 158.682 167.892 158.705C167.913 158.727 167.937 158.745 167.964 158.758C167.992 158.77 168.021 158.777 168.051 158.777C168.156 158.782 168.259 158.742 168.338 158.667Z" fill="black"/>
<path d="M169.428 158.897C169.399 158.873 169.376 158.84 169.364 158.803C169.352 158.767 169.352 158.728 169.364 158.692C169.375 158.659 169.393 158.628 169.416 158.603C169.44 158.575 169.473 158.558 169.509 158.556C169.551 158.553 169.593 158.562 169.63 158.581L169.695 158.62L169.792 158.671C169.828 158.687 169.866 158.7 169.905 158.709C169.955 158.722 170.007 158.731 170.058 158.735H170.18L170.297 158.714C170.332 158.705 170.364 158.685 170.39 158.658C170.402 158.645 170.412 158.629 170.418 158.611C170.424 158.593 170.427 158.575 170.426 158.556C170.425 158.537 170.42 158.519 170.411 158.502C170.401 158.486 170.389 158.472 170.374 158.462C170.327 158.426 170.273 158.402 170.216 158.39L169.97 158.322L169.747 158.249C169.69 158.227 169.635 158.2 169.582 158.168C169.532 158.143 169.486 158.109 169.448 158.066C169.417 158.024 169.394 157.976 169.38 157.925C169.359 157.862 169.35 157.796 169.351 157.729C169.348 157.644 169.367 157.559 169.406 157.484C169.445 157.409 169.503 157.346 169.574 157.303C169.755 157.194 169.964 157.149 170.172 157.176C170.241 157.179 170.31 157.189 170.378 157.205L170.527 157.248L170.656 157.308C170.695 157.325 170.727 157.355 170.749 157.393C170.771 157.425 170.781 157.464 170.778 157.504C170.773 157.54 170.762 157.574 170.745 157.606C170.725 157.637 170.695 157.658 170.66 157.666C170.619 157.676 170.576 157.676 170.535 157.666C170.419 157.619 170.299 157.587 170.176 157.572H170.038C169.993 157.576 169.949 157.589 169.909 157.61C169.892 157.617 169.876 157.629 169.866 157.645C169.855 157.661 169.849 157.68 169.848 157.7C169.848 157.72 169.852 157.741 169.86 157.759C169.869 157.778 169.881 157.794 169.897 157.806C169.946 157.835 169.999 157.855 170.054 157.866L170.297 157.93C170.38 157.953 170.463 157.981 170.543 158.015C170.608 158.042 170.669 158.078 170.725 158.121C170.779 158.164 170.822 158.219 170.85 158.283C170.885 158.377 170.898 158.479 170.887 158.579C170.877 158.679 170.843 158.775 170.79 158.858C170.719 158.959 170.62 159.034 170.507 159.071C170.377 159.117 170.24 159.136 170.103 159.127C169.862 159.12 169.627 159.041 169.428 158.897Z" fill="black"/>
<path d="M171.586 159.016C171.443 158.946 171.325 158.832 171.246 158.688C171.159 158.525 171.115 158.339 171.121 158.151C171.118 157.979 171.157 157.809 171.234 157.657C171.313 157.512 171.428 157.391 171.566 157.308C171.715 157.222 171.884 157.18 172.054 157.184C172.184 157.18 172.314 157.205 172.434 157.257C172.536 157.299 172.627 157.368 172.697 157.457C172.76 157.543 172.808 157.642 172.838 157.747C172.871 157.86 172.888 157.977 172.887 158.096C172.887 158.198 172.826 158.249 172.709 158.249H171.679C171.674 158.313 171.683 158.378 171.705 158.438C171.727 158.498 171.761 158.552 171.806 158.596C171.851 158.64 171.904 158.672 171.963 158.691C172.021 158.71 172.083 158.715 172.143 158.705C172.226 158.705 172.309 158.688 172.386 158.654C172.46 158.624 172.528 158.581 172.588 158.526C172.61 158.513 172.636 158.506 172.662 158.506C172.689 158.506 172.714 158.513 172.737 158.526C172.763 158.541 172.786 158.562 172.804 158.587C172.823 158.612 172.835 158.64 172.842 158.671C172.853 158.7 172.856 158.732 172.849 158.762C172.843 158.793 172.828 158.82 172.806 158.841C172.769 158.877 172.73 158.91 172.689 158.939L172.543 159.029C172.478 159.063 172.409 159.087 172.337 159.101C172.252 159.119 172.165 159.127 172.079 159.127C171.908 159.13 171.74 159.092 171.586 159.016ZM172.414 157.977C172.414 157.859 172.383 157.744 172.325 157.644C172.293 157.603 172.252 157.57 172.206 157.549C172.159 157.529 172.109 157.52 172.058 157.525C172.008 157.523 171.957 157.533 171.911 157.555C171.864 157.577 171.824 157.611 171.792 157.653C171.724 157.746 171.685 157.859 171.683 157.977H172.414Z" fill="black"/>
<path d="M155.777 162.658C155.67 162.621 155.57 162.563 155.482 162.488C155.391 162.404 155.319 162.299 155.272 162.181C155.218 162.046 155.191 161.901 155.191 161.755C155.19 161.579 155.233 161.405 155.317 161.253C155.399 161.107 155.516 160.986 155.656 160.903C155.806 160.822 155.972 160.781 156.141 160.784C156.25 160.784 156.359 160.8 156.464 160.831C156.55 160.858 156.631 160.901 156.702 160.959C156.737 160.99 156.763 161.031 156.775 161.078C156.787 161.12 156.787 161.164 156.775 161.206C156.763 161.243 156.747 161.279 156.727 161.312C156.702 161.343 156.668 161.363 156.63 161.368C156.588 161.371 156.546 161.362 156.509 161.342C156.409 161.282 156.296 161.252 156.181 161.257C156.068 161.258 155.96 161.306 155.878 161.389C155.837 161.438 155.806 161.495 155.786 161.558C155.767 161.62 155.76 161.686 155.765 161.751C155.765 161.834 155.779 161.916 155.806 161.994C155.835 162.068 155.884 162.131 155.947 162.177C156.017 162.227 156.101 162.252 156.185 162.249C156.302 162.248 156.417 162.217 156.521 162.16C156.558 162.139 156.6 162.131 156.642 162.139C156.661 162.141 156.679 162.147 156.695 162.157C156.711 162.168 156.725 162.182 156.735 162.198C156.759 162.233 156.776 162.272 156.787 162.313C156.799 162.356 156.799 162.402 156.787 162.445C156.773 162.492 156.747 162.534 156.711 162.565C156.635 162.622 156.55 162.662 156.46 162.684C156.349 162.713 156.235 162.728 156.121 162.726C156.003 162.726 155.887 162.703 155.777 162.658Z" fill="black"/>
<path d="M157.296 162.454C157.21 162.362 157.143 162.251 157.099 162.13C157.055 162.01 157.036 161.88 157.042 161.751C157.04 161.622 157.061 161.493 157.102 161.372C157.142 161.257 157.203 161.152 157.28 161.061C157.366 160.967 157.471 160.896 157.587 160.852C157.725 160.799 157.872 160.773 158.019 160.775C158.15 160.766 158.282 160.784 158.406 160.83C158.531 160.875 158.645 160.946 158.742 161.039C158.829 161.133 158.896 161.245 158.941 161.367C158.985 161.49 159.006 161.62 159.001 161.751C159.002 161.88 158.981 162.008 158.94 162.13C158.9 162.243 158.838 162.346 158.759 162.433C158.673 162.527 158.568 162.598 158.452 162.641C158.313 162.694 158.167 162.72 158.019 162.718C157.888 162.728 157.756 162.71 157.632 162.665C157.507 162.619 157.393 162.547 157.296 162.454ZM158.314 162.177C158.39 162.05 158.427 161.901 158.419 161.751C158.426 161.601 158.389 161.453 158.314 161.325C158.279 161.277 158.235 161.239 158.184 161.212C158.133 161.185 158.076 161.172 158.019 161.172C157.962 161.172 157.906 161.185 157.855 161.212C157.804 161.239 157.759 161.277 157.724 161.325C157.651 161.453 157.616 161.601 157.623 161.751C157.614 161.901 157.649 162.049 157.724 162.177C157.759 162.225 157.803 162.265 157.854 162.292C157.905 162.319 157.962 162.333 158.019 162.333C158.077 162.333 158.133 162.319 158.184 162.292C158.235 162.265 158.28 162.225 158.314 162.177Z" fill="black"/>
<path d="M159.421 162.594C159.372 162.504 159.349 162.4 159.356 162.296V161.197C159.351 161.095 159.373 160.993 159.421 160.903C159.447 160.871 159.48 160.846 159.518 160.83C159.555 160.813 159.595 160.806 159.635 160.809C159.675 160.805 159.714 160.811 159.752 160.825C159.789 160.839 159.822 160.862 159.85 160.892C159.877 160.922 159.898 160.958 159.911 160.997C159.923 161.037 159.927 161.079 159.922 161.12V161.146C159.959 161.025 160.039 160.923 160.144 160.861C160.259 160.795 160.389 160.762 160.52 160.767C160.579 160.762 160.639 160.762 160.698 160.767C160.752 160.78 160.805 160.798 160.855 160.822C160.907 160.854 160.952 160.896 160.989 160.946C161.027 161.011 161.057 161.081 161.078 161.155C161.112 161.079 161.155 161.009 161.207 160.946C161.255 160.894 161.311 160.853 161.372 160.822C161.429 160.797 161.489 160.778 161.55 160.767C161.613 160.762 161.677 160.762 161.74 160.767C161.819 160.763 161.898 160.777 161.972 160.808C162.046 160.839 162.113 160.886 162.168 160.946C162.286 161.088 162.346 161.273 162.334 161.461V162.283C162.34 162.387 162.317 162.491 162.269 162.582C162.244 162.617 162.211 162.645 162.173 162.662C162.135 162.68 162.093 162.688 162.051 162.684C161.861 162.684 161.768 162.552 161.768 162.283V161.495C161.774 161.404 161.746 161.315 161.692 161.244C161.667 161.213 161.636 161.189 161.601 161.173C161.566 161.157 161.528 161.149 161.49 161.15C161.442 161.149 161.394 161.158 161.349 161.177C161.305 161.196 161.265 161.225 161.231 161.261C161.16 161.343 161.122 161.452 161.126 161.563V162.283C161.135 162.388 161.11 162.493 161.057 162.582C161.032 162.617 160.999 162.645 160.961 162.662C160.923 162.68 160.881 162.688 160.839 162.684C160.653 162.684 160.56 162.552 160.56 162.283V161.572C160.567 161.471 160.541 161.371 160.488 161.287C160.464 161.253 160.433 161.226 160.397 161.208C160.361 161.191 160.321 161.182 160.282 161.184C160.187 161.181 160.094 161.216 160.023 161.282C159.988 161.317 159.961 161.359 159.943 161.407C159.926 161.454 159.919 161.504 159.922 161.555V162.317C159.922 162.586 159.825 162.718 159.627 162.718C159.585 162.719 159.544 162.709 159.508 162.687C159.471 162.665 159.441 162.633 159.421 162.594Z" fill="black"/>
<path d="M162.815 163.276C162.768 163.185 162.747 163.081 162.754 162.978V161.227C162.749 161.119 162.773 161.011 162.823 160.916C162.847 160.878 162.879 160.848 162.917 160.828C162.956 160.808 162.998 160.799 163.041 160.801C163.078 160.799 163.116 160.805 163.151 160.82C163.186 160.835 163.217 160.857 163.243 160.886C163.292 160.943 163.318 161.018 163.316 161.095V161.146C163.363 161.032 163.446 160.937 163.55 160.878C163.699 160.8 163.867 160.775 164.03 160.805C164.193 160.835 164.344 160.918 164.459 161.044C164.616 161.25 164.694 161.512 164.677 161.776C164.679 161.921 164.657 162.065 164.613 162.202C164.578 162.316 164.519 162.42 164.439 162.505C164.368 162.581 164.282 162.64 164.188 162.68C164.091 162.721 163.986 162.741 163.881 162.739C163.76 162.743 163.641 162.714 163.534 162.654C163.439 162.603 163.362 162.521 163.316 162.42V163.008C163.316 163.276 163.219 163.408 163.025 163.408C162.982 163.409 162.939 163.397 162.902 163.373C162.865 163.35 162.835 163.316 162.815 163.276ZM164.027 162.16C164.102 162.032 164.139 161.884 164.132 161.734C164.138 161.666 164.138 161.597 164.132 161.529C164.118 161.466 164.096 161.404 164.067 161.346C164.038 161.289 163.995 161.242 163.942 161.21C163.878 161.164 163.801 161.142 163.724 161.146C163.441 161.146 163.32 161.342 163.32 161.73C163.313 161.88 163.35 162.028 163.425 162.156C163.461 162.203 163.507 162.241 163.56 162.266C163.613 162.291 163.67 162.303 163.728 162.3C163.785 162.307 163.842 162.298 163.895 162.275C163.948 162.252 163.995 162.215 164.031 162.168L164.027 162.16Z" fill="black"/>
<path d="M165.126 162.594C165.078 162.503 165.056 162.4 165.061 162.296V160.375C165.056 160.271 165.078 160.168 165.126 160.077C165.149 160.042 165.18 160.014 165.216 159.996C165.252 159.978 165.292 159.971 165.332 159.974C165.374 159.971 165.416 159.978 165.455 159.996C165.494 160.014 165.528 160.042 165.554 160.077C165.609 160.165 165.634 160.27 165.627 160.375V162.296C165.634 162.401 165.609 162.506 165.554 162.594C165.528 162.63 165.494 162.657 165.455 162.675C165.416 162.693 165.374 162.7 165.332 162.697C165.292 162.7 165.252 162.693 165.216 162.675C165.18 162.657 165.149 162.629 165.126 162.594Z" fill="black"/>
<path d="M166.447 162.611C166.304 162.543 166.185 162.428 166.107 162.283C166.018 162.12 165.974 161.935 165.978 161.747C165.976 161.574 166.016 161.404 166.095 161.253C166.172 161.105 166.287 160.984 166.427 160.903C166.575 160.818 166.742 160.775 166.911 160.78C167.043 160.775 167.173 160.8 167.295 160.852C167.397 160.893 167.486 160.962 167.554 161.052C167.619 161.138 167.669 161.236 167.699 161.342C167.732 161.455 167.749 161.573 167.748 161.691C167.748 161.794 167.687 161.845 167.566 161.845H166.552C166.547 161.909 166.556 161.973 166.578 162.033C166.6 162.094 166.634 162.148 166.679 162.191C166.724 162.235 166.777 162.268 166.836 162.287C166.894 162.306 166.956 162.31 167.016 162.3C167.098 162.3 167.179 162.283 167.255 162.249C167.33 162.219 167.399 162.176 167.461 162.122C167.483 162.108 167.508 162.101 167.533 162.101C167.559 162.101 167.584 162.108 167.606 162.122C167.634 162.135 167.658 162.156 167.676 162.181C167.695 162.206 167.709 162.235 167.715 162.266C167.725 162.296 167.726 162.328 167.719 162.358C167.712 162.388 167.696 162.415 167.675 162.437C167.639 162.472 167.602 162.505 167.562 162.535L167.416 162.624C167.35 162.659 167.279 162.683 167.206 162.697C167.121 162.715 167.034 162.723 166.948 162.722C166.775 162.727 166.603 162.689 166.447 162.611ZM167.275 161.572C167.274 161.454 167.242 161.339 167.182 161.24C167.151 161.199 167.11 161.167 167.065 161.146C167.019 161.125 166.969 161.116 166.919 161.12C166.868 161.118 166.817 161.128 166.77 161.151C166.723 161.173 166.681 161.206 166.649 161.248C166.58 161.341 166.542 161.455 166.54 161.572H167.275Z" fill="black"/>
<path d="M168.366 162.552C168.255 162.395 168.203 162.201 168.22 162.007V161.21H168.111C168.085 161.212 168.059 161.209 168.034 161.2C168.009 161.191 167.986 161.177 167.966 161.159C167.93 161.112 167.912 161.053 167.917 160.993C167.914 160.966 167.916 160.938 167.925 160.912C167.933 160.887 167.947 160.863 167.966 160.844C167.984 160.825 168.006 160.811 168.031 160.803C168.056 160.795 168.082 160.792 168.107 160.797H168.257L168.297 160.435C168.317 160.2 168.41 160.085 168.568 160.085C168.725 160.085 168.786 160.213 168.786 160.464V160.797H169.004C169.129 160.797 169.19 160.869 169.19 161.01C169.192 161.037 169.189 161.064 169.181 161.09C169.172 161.115 169.159 161.139 169.141 161.159C169.121 161.177 169.097 161.192 169.072 161.2C169.046 161.209 169.019 161.212 168.992 161.21H168.786V161.874C168.777 161.989 168.797 162.103 168.842 162.207C168.875 162.271 168.939 162.296 169.036 162.292H169.137C169.153 162.29 169.17 162.292 169.185 162.297C169.2 162.302 169.214 162.31 169.226 162.322C169.252 162.344 169.27 162.373 169.279 162.407C169.283 162.441 169.283 162.475 169.279 162.509C169.276 162.546 169.265 162.581 169.246 162.611C169.23 162.641 169.204 162.664 169.174 162.675C169.043 162.716 168.906 162.734 168.77 162.726C168.695 162.727 168.62 162.712 168.551 162.682C168.482 162.652 168.419 162.608 168.366 162.552Z" fill="black"/>
<path d="M169.966 162.611C169.823 162.542 169.705 162.427 169.626 162.283C169.539 162.12 169.495 161.934 169.501 161.747C169.498 161.574 169.537 161.404 169.614 161.252C169.693 161.107 169.808 160.987 169.945 160.903C170.095 160.818 170.264 160.775 170.434 160.78C170.564 160.775 170.694 160.8 170.814 160.852C170.917 160.893 171.008 160.962 171.077 161.052C171.141 161.138 171.189 161.237 171.218 161.342C171.251 161.455 171.268 161.573 171.266 161.691C171.266 161.794 171.206 161.845 171.089 161.845H170.059C170.054 161.909 170.062 161.973 170.084 162.033C170.107 162.093 170.141 162.148 170.186 162.191C170.231 162.235 170.284 162.268 170.343 162.287C170.401 162.306 170.463 162.31 170.523 162.3C170.606 162.301 170.689 162.283 170.766 162.249C170.839 162.218 170.907 162.175 170.968 162.122C170.99 162.108 171.016 162.101 171.042 162.101C171.068 162.101 171.094 162.108 171.117 162.122C171.143 162.136 171.166 162.157 171.184 162.182C171.202 162.207 171.215 162.236 171.222 162.266C171.233 162.295 171.236 162.327 171.229 162.358C171.223 162.388 171.207 162.416 171.186 162.437C171.149 162.472 171.11 162.505 171.069 162.535L170.923 162.624C170.858 162.658 170.789 162.683 170.717 162.697C170.632 162.714 170.545 162.723 170.458 162.722C170.288 162.725 170.12 162.687 169.966 162.611ZM170.794 161.572C170.794 161.455 170.763 161.34 170.705 161.24C170.674 161.199 170.633 161.167 170.588 161.146C170.542 161.125 170.492 161.116 170.442 161.12C170.391 161.118 170.34 161.128 170.292 161.15C170.245 161.172 170.204 161.206 170.172 161.248C170.103 161.341 170.065 161.455 170.063 161.572H170.794Z" fill="black"/>
<path d="M171.759 162.479C171.606 162.272 171.53 162.013 171.545 161.751C171.543 161.606 171.564 161.463 171.606 161.325C171.643 161.214 171.702 161.112 171.78 161.027C171.851 160.95 171.936 160.889 172.03 160.848C172.128 160.81 172.232 160.791 172.337 160.792C172.458 160.788 172.578 160.817 172.684 160.878C172.781 160.927 172.858 161.01 172.903 161.112V160.371C172.897 160.265 172.921 160.16 172.971 160.068C172.999 160.034 173.034 160.008 173.073 159.991C173.113 159.974 173.155 159.967 173.198 159.97C173.237 159.967 173.276 159.975 173.312 159.992C173.348 160.009 173.38 160.035 173.404 160.068C173.45 160.161 173.471 160.266 173.464 160.371V162.275C173.469 162.383 173.445 162.491 173.396 162.586C173.372 162.623 173.34 162.652 173.303 162.672C173.265 162.691 173.223 162.7 173.181 162.697C173.144 162.699 173.106 162.694 173.07 162.68C173.035 162.666 173.002 162.644 172.975 162.616C172.926 162.558 172.899 162.481 172.903 162.403C172.851 162.518 172.767 162.613 172.663 162.676C172.558 162.738 172.437 162.765 172.317 162.752C172.21 162.754 172.105 162.731 172.008 162.683C171.912 162.636 171.827 162.566 171.759 162.479ZM172.903 161.764C172.911 161.613 172.872 161.464 172.794 161.338C172.758 161.289 172.712 161.25 172.659 161.224C172.607 161.198 172.549 161.186 172.491 161.189C172.431 161.186 172.372 161.199 172.319 161.227C172.266 161.256 172.22 161.298 172.188 161.35C172.114 161.479 172.077 161.627 172.083 161.776C172.082 161.847 172.091 161.917 172.107 161.985C172.12 162.051 172.142 162.114 172.171 162.173C172.199 162.231 172.241 162.281 172.293 162.317C172.349 162.352 172.413 162.37 172.478 162.369C172.761 162.366 172.903 162.164 172.903 161.764Z" fill="black"/>
<path d="M174.046 160.2C174.032 160.138 174.04 160.073 174.068 160.017C174.096 159.96 174.143 159.917 174.199 159.894C174.256 159.864 174.318 159.848 174.381 159.848C174.444 159.848 174.507 159.864 174.563 159.894C174.619 159.917 174.666 159.961 174.694 160.017C174.723 160.073 174.732 160.138 174.721 160.2L174.555 161.585C174.55 161.636 174.529 161.684 174.494 161.721C174.464 161.752 174.423 161.768 174.381 161.768C174.361 161.768 174.341 161.764 174.322 161.756C174.304 161.748 174.287 161.736 174.272 161.721C174.255 161.701 174.242 161.677 174.235 161.652C174.227 161.626 174.225 161.599 174.228 161.572L174.046 160.2ZM174.175 162.616C174.146 162.587 174.123 162.552 174.107 162.513C174.092 162.474 174.085 162.432 174.086 162.39C174.086 162.348 174.093 162.307 174.107 162.268C174.122 162.229 174.144 162.194 174.171 162.164C174.198 162.133 174.232 162.109 174.269 162.093C174.306 162.077 174.345 162.069 174.385 162.07C174.424 162.07 174.463 162.077 174.499 162.093C174.535 162.108 174.568 162.131 174.595 162.16C174.625 162.189 174.648 162.225 174.664 162.265C174.679 162.304 174.686 162.347 174.684 162.39C174.685 162.474 174.654 162.555 174.599 162.616C174.572 162.645 174.539 162.669 174.502 162.685C174.466 162.701 174.427 162.709 174.387 162.709C174.348 162.709 174.309 162.701 174.272 162.685C174.236 162.669 174.203 162.645 174.175 162.616Z" fill="black"/>
<path d="M143.188 178.659H186.97" stroke="#263238" stroke-linecap="round" stroke-linejoin="round"/>
<path d="M143.188 184.171H186.97" stroke="#263238" stroke-linecap="round" stroke-linejoin="round"/>
<path d="M143.188 189.684H186.97" stroke="#263238" stroke-linecap="round" stroke-linejoin="round"/>
<path d="M143.188 195.196H186.97" stroke="#263238" stroke-linecap="round" stroke-linejoin="round"/>
<path d="M190.957 105.502H139.75C138.959 105.502 138.199 105.834 137.639 106.424C137.079 107.014 136.765 107.815 136.765 108.65V110.899H169.784L171.525 108.833H193.943V108.65C193.943 107.815 193.628 107.014 193.069 106.424C192.509 105.834 191.749 105.502 190.957 105.502Z" fill="#616161"/>
</g>
<path d="M190.957 105.502H139.75C138.102 105.502 136.765 106.911 136.765 108.65V203.571C136.765 205.31 138.102 206.719 139.75 206.719H190.957C192.606 206.719 193.943 205.31 193.943 203.571V108.65C193.943 106.911 192.606 105.502 190.957 105.502Z" stroke="#263238" stroke-linecap="round" stroke-linejoin="round"/>
<path d="M196.743 193.309V196.538C196.743 196.579 196.751 196.619 196.765 196.657C196.78 196.695 196.802 196.729 196.829 196.758C196.857 196.787 196.889 196.81 196.925 196.825C196.961 196.841 196.999 196.849 197.038 196.849C197.077 196.85 197.115 196.842 197.151 196.827C197.187 196.811 197.22 196.788 197.248 196.759C197.275 196.73 197.297 196.696 197.311 196.658C197.326 196.62 197.333 196.579 197.333 196.538V193.309C197.333 193.227 197.302 193.147 197.246 193.089C197.191 193.031 197.116 192.998 197.038 192.998C196.96 192.998 196.885 193.031 196.829 193.089C196.774 193.147 196.743 193.227 196.743 193.309Z" fill="white"/>
<path d="M196.743 180.929V187.579C196.75 187.655 196.785 187.725 196.84 187.774C196.895 187.823 196.966 187.848 197.038 187.843C197.11 187.849 197.182 187.825 197.237 187.775C197.292 187.726 197.327 187.655 197.333 187.579V180.929C197.327 180.853 197.292 180.783 197.237 180.733C197.182 180.684 197.11 180.659 197.038 180.665C196.966 180.661 196.895 180.685 196.84 180.735C196.785 180.784 196.75 180.854 196.743 180.929Z" fill="white"/>
<path d="M74.5087 200.675C74.5087 200.675 76.1247 196.415 70.7394 185.339C65.3541 174.263 70.4687 156.371 70.4687 156.371" stroke="#616161" stroke-miterlimit="10"/>
<path d="M77.7406 201.812C77.7406 201.812 79.6273 197.552 77.47 191.303C75.3126 185.053 75.8863 181.505 75.8863 181.505" stroke="#616161" stroke-miterlimit="10"/>
<path d="M69.5477 182.506C69.5477 182.506 65.3502 177.104 63.7342 170.578C62.1182 164.051 62.1182 160.924 62.1182 160.924" stroke="#616161" stroke-miterlimit="10"/>
<path d="M72.0846 199.537C72.0846 199.537 70.1979 196.981 69.6606 189.313C69.3489 184.628 69.804 179.922 71.0059 175.4" stroke="#616161" stroke-miterlimit="10"/>
<path d="M70.0121 223.619H79.5991L80.7949 198.749H68.8123L70.0121 223.619Z" fill="white"/>
<path opacity="0.17" d="M70.0121 223.619H79.5991L80.7949 198.749H68.8123L70.0121 223.619Z" fill="black"/>
<path d="M72.3958 185.313C72.3958 185.483 72.6382 185.611 72.6786 185.773C72.719 185.935 72.5897 186.161 72.6503 186.314C72.7109 186.467 72.9533 186.531 73.0543 186.676C73.1553 186.821 73.0543 187.077 73.1594 187.209C73.2644 187.341 73.5068 187.336 73.6199 187.456C73.7331 187.575 73.729 187.839 73.8543 187.941C73.9795 188.044 74.2219 187.971 74.3593 188.056C74.4966 188.142 74.5572 188.397 74.7027 188.461C74.8481 188.525 75.0663 188.389 75.2198 188.431C75.3733 188.474 75.4945 188.704 75.6521 188.73C75.8096 188.755 75.9833 188.559 76.1449 188.559C76.3065 188.559 76.4762 188.751 76.6338 188.73C76.7913 188.708 76.9125 188.474 77.0661 188.431C77.2196 188.389 77.4377 188.525 77.5832 188.461C77.7286 188.397 77.7892 188.137 77.9266 188.056C78.0639 187.975 78.3063 188.056 78.4316 187.941C78.5568 187.826 78.5528 187.575 78.6659 187.456C78.779 187.336 79.0295 187.345 79.1265 187.209C79.2234 187.072 79.1507 186.825 79.2315 186.676C79.3123 186.527 79.5547 186.472 79.6355 186.314C79.7163 186.156 79.5668 185.935 79.6113 185.773C79.6557 185.611 79.8698 185.483 79.89 185.313C79.9102 185.143 79.7325 184.968 79.7325 184.798C79.7325 184.627 79.9102 184.444 79.89 184.282C79.8698 184.12 79.6517 183.984 79.6113 183.822C79.5709 183.66 79.7001 183.434 79.6395 183.281C79.5789 183.128 79.3325 183.064 79.2355 182.919C79.1386 182.774 79.2355 182.518 79.1305 182.386C79.0255 182.254 78.7831 182.259 78.6699 182.139C78.5568 182.02 78.5649 181.756 78.4356 181.654C78.3063 181.551 78.072 181.624 77.9306 181.539C77.7892 181.453 77.7367 181.198 77.5872 181.134C77.4377 181.07 77.2277 181.206 77.0701 181.164C76.9125 181.121 76.7994 180.891 76.6378 180.866C76.4762 180.84 76.3106 181.036 76.149 181.036C75.9874 181.036 75.8137 180.844 75.6561 180.866C75.4985 180.887 75.3773 181.121 75.2238 181.164C75.0703 181.206 74.8562 181.07 74.7107 181.134C74.5653 181.198 74.5007 181.453 74.3633 181.539C74.2259 181.624 73.9876 181.539 73.8583 181.654C73.729 181.769 73.7371 182.02 73.624 182.139C73.5109 182.259 73.2644 182.25 73.1675 182.382C73.0705 182.514 73.1392 182.77 73.0584 182.915C72.9776 183.059 72.7352 183.123 72.6544 183.281C72.5736 183.439 72.7231 183.66 72.6827 183.822C72.6423 183.984 72.42 184.112 72.3998 184.278C72.3797 184.444 72.5615 184.627 72.5615 184.798C72.5615 184.968 72.3756 185.151 72.3958 185.313ZM67.3135 174.118C67.3135 173.9 67.0832 173.692 67.1115 173.466C67.1398 173.24 67.4145 173.091 67.467 172.887C67.5195 172.682 67.3539 172.397 67.4307 172.205C67.5074 172.013 67.8145 171.928 67.9155 171.745C68.0165 171.562 67.9155 171.242 68.0488 171.076C68.1821 170.91 68.4891 170.914 68.6305 170.765C68.7719 170.616 68.7639 170.284 68.9255 170.152C69.0871 170.02 69.386 170.118 69.5597 170.011C69.7335 169.905 69.8062 169.585 69.9961 169.5C70.1859 169.415 70.4485 169.594 70.6465 169.538C70.8445 169.483 70.9899 169.189 71.1919 169.163C71.3939 169.138 71.5959 169.376 71.81 169.376C72.0241 169.376 72.214 169.134 72.4281 169.163C72.6423 169.193 72.7796 169.483 72.9735 169.538C73.1675 169.594 73.4381 169.419 73.624 169.5C73.8098 169.581 73.8825 169.905 74.0563 170.011C74.23 170.118 74.533 170.011 74.6946 170.152C74.8562 170.292 74.8441 170.616 74.9895 170.765C75.1349 170.914 75.446 170.906 75.5672 171.076C75.6884 171.246 75.6036 171.562 75.7046 171.745C75.8056 171.928 76.1086 172.005 76.1853 172.205C76.2621 172.405 76.1005 172.682 76.153 172.891C76.2055 173.1 76.4803 173.253 76.5085 173.466C76.5368 173.679 76.3025 173.892 76.3025 174.118C76.3025 174.343 76.5328 174.544 76.5085 174.769C76.4843 174.995 76.2055 175.14 76.153 175.345C76.1005 175.549 76.2621 175.834 76.1853 176.03C76.1086 176.226 75.8015 176.303 75.7046 176.486C75.6076 176.669 75.7046 176.989 75.5672 177.159C75.4299 177.33 75.1309 177.317 74.9855 177.47C74.84 177.624 74.8521 177.952 74.6946 178.08C74.537 178.207 74.23 178.118 74.0563 178.224C73.8825 178.331 73.8098 178.65 73.624 178.731C73.4381 178.812 73.1675 178.642 72.9735 178.697C72.7796 178.753 72.6301 179.042 72.4281 179.072C72.2261 179.102 72.0241 178.855 71.81 178.855C71.5959 178.855 71.406 179.098 71.1919 179.072C70.9778 179.047 70.8364 178.753 70.6425 178.697C70.4485 178.642 70.1779 178.812 69.9961 178.731C69.8143 178.65 69.7335 178.327 69.5597 178.224C69.386 178.122 69.083 178.224 68.9255 178.08C68.7679 177.935 68.7719 177.619 68.6305 177.466C68.4891 177.313 68.174 177.325 68.0488 177.159C67.9235 176.993 68.0165 176.669 67.9155 176.486C67.8145 176.303 67.5115 176.226 67.4307 176.03C67.3499 175.834 67.5155 175.549 67.467 175.345C67.4185 175.14 67.1357 174.982 67.1115 174.769C67.0873 174.556 67.3135 174.352 67.3135 174.118ZM66.7641 193.168C66.7641 192.951 66.5378 192.742 66.5621 192.517C66.5863 192.291 66.8651 192.146 66.9176 191.942C66.9701 191.737 66.8045 191.452 66.8812 191.256C66.958 191.06 67.2852 190.979 67.366 190.796C67.4468 190.612 67.366 190.293 67.4993 190.127C67.6327 189.961 67.9397 189.965 68.0811 189.816C68.2225 189.667 68.2144 189.334 68.376 189.202C68.5376 189.07 68.8366 189.168 69.0103 189.062C69.184 188.955 69.2608 188.636 69.4466 188.551C69.6325 188.465 69.8991 188.644 70.0971 188.589C70.295 188.534 70.4405 188.244 70.6425 188.214C70.8445 188.184 71.0465 188.427 71.2606 188.427C71.4747 188.427 71.6646 188.188 71.8787 188.214C72.0928 188.24 72.2302 188.534 72.4241 188.589C72.618 188.644 72.8887 188.47 73.0745 188.551C73.2604 188.632 73.3331 188.955 73.5068 189.062C73.6805 189.168 73.9835 189.062 74.1451 189.207C74.3067 189.351 74.2946 189.667 74.4401 189.816C74.5855 189.965 74.8966 189.961 75.0178 190.127C75.139 190.293 75.0541 190.612 75.1551 190.8C75.2561 190.987 75.5591 191.06 75.6399 191.256C75.7207 191.452 75.5511 191.733 75.6036 191.942C75.6561 192.15 75.9308 192.304 75.9591 192.517C75.9874 192.73 75.7571 192.943 75.7571 193.168C75.7571 193.394 75.9833 193.594 75.9591 193.82C75.9349 194.046 75.6561 194.191 75.6036 194.395C75.5511 194.6 75.7167 194.885 75.6399 195.081C75.5632 195.277 75.2359 195.358 75.1551 195.541C75.0743 195.724 75.1551 196.044 75.0178 196.21C74.8804 196.376 74.5815 196.372 74.4401 196.521C74.2987 196.67 74.3027 197.002 74.1451 197.134C73.9876 197.267 73.6805 197.169 73.5068 197.275C73.3331 197.382 73.2604 197.701 73.0745 197.786C72.8887 197.871 72.618 197.693 72.4241 197.748C72.2302 197.803 72.0807 198.093 71.8787 198.123C71.6767 198.153 71.4747 197.91 71.2606 197.91C71.0465 197.91 70.8566 198.148 70.6425 198.123C70.4283 198.097 70.2869 197.803 70.0971 197.748C69.9072 197.693 69.6325 197.867 69.4466 197.786C69.2608 197.705 69.184 197.382 69.0103 197.275C68.8366 197.169 68.5336 197.275 68.376 197.13C68.2185 196.985 68.2225 196.67 68.0811 196.521C67.9397 196.372 67.6246 196.38 67.4993 196.21C67.3741 196.04 67.467 195.724 67.366 195.537C67.265 195.35 66.962 195.277 66.8812 195.081C66.8004 194.885 66.9701 194.604 66.9176 194.395C66.8651 194.187 66.5863 194.033 66.5621 193.82C66.5378 193.607 66.7641 193.386 66.7641 193.168ZM76.0561 195.874C76.0561 195.733 75.8217 195.575 75.8379 195.448C75.8541 195.32 76.1207 195.217 76.153 195.081C76.1853 194.945 76.0035 194.732 76.052 194.604C76.1005 194.476 76.3793 194.459 76.456 194.34C76.5328 194.221 76.3954 193.957 76.456 193.846C76.5166 193.735 76.8075 193.799 76.9004 193.701C76.9933 193.603 76.9368 193.313 77.0418 193.228C77.1469 193.143 77.3933 193.279 77.5064 193.207C77.6195 193.134 77.6357 192.849 77.7569 192.781C77.8781 192.713 78.0841 192.921 78.2134 192.887C78.3427 192.853 78.4235 192.572 78.5568 192.555C78.6901 192.538 78.8356 192.781 78.9608 192.781C79.0861 192.781 79.2436 192.538 79.3648 192.555C79.486 192.572 79.583 192.849 79.7123 192.887C79.8415 192.926 80.0435 192.725 80.1688 192.781C80.294 192.836 80.3021 193.126 80.4193 193.207C80.5364 193.288 80.7788 193.147 80.8839 193.232C80.9889 193.318 80.9283 193.599 81.0253 193.701C81.1222 193.803 81.3889 193.735 81.4697 193.846C81.5505 193.957 81.4212 194.216 81.4899 194.34C81.5585 194.463 81.8333 194.472 81.8939 194.604C81.9545 194.736 81.7605 194.949 81.7929 195.085C81.8252 195.222 82.0918 195.307 82.108 195.448C82.1241 195.588 81.8939 195.741 81.8939 195.874C81.8939 196.006 82.1241 196.176 82.108 196.3C82.0918 196.423 81.8292 196.53 81.7929 196.662C81.7565 196.794 81.9464 197.015 81.8939 197.143C81.8413 197.271 81.5666 197.288 81.4899 197.407C81.4131 197.526 81.5505 197.786 81.4697 197.897C81.3889 198.008 81.1182 197.948 81.0212 198.046C80.9243 198.144 80.9889 198.43 80.8839 198.515C80.7788 198.6 80.5324 198.468 80.4152 198.536C80.2981 198.604 80.29 198.898 80.1647 198.962C80.0395 199.026 79.8415 198.817 79.7123 198.856C79.583 198.894 79.4981 199.167 79.3648 199.188C79.2315 199.209 79.0861 198.958 78.9608 198.958C78.8356 198.958 78.678 199.205 78.5568 199.188C78.4356 199.171 78.3427 198.89 78.2134 198.856C78.0841 198.821 77.8781 199.013 77.7569 198.962C77.6357 198.911 77.6236 198.617 77.5064 198.536C77.3892 198.455 77.1469 198.6 77.0418 198.515C76.9368 198.43 76.9933 198.144 76.9004 198.046C76.8075 197.948 76.5368 198.008 76.456 197.897C76.3752 197.786 76.5005 197.526 76.456 197.407C76.4116 197.288 76.1126 197.271 76.052 197.143C75.9914 197.015 76.1894 196.798 76.153 196.662C76.1166 196.525 75.8581 196.44 75.8379 196.3C75.8177 196.159 76.0561 196.018 76.0561 195.874ZM66.2348 156.907C66.2348 156.69 66.0045 156.46 66.0328 156.251C66.0611 156.043 66.3358 155.881 66.3843 155.676C66.4328 155.472 66.2752 155.186 66.352 154.995C66.4287 154.803 66.756 154.718 66.8368 154.534C66.9176 154.351 66.8368 154.032 66.9701 153.866C67.1034 153.7 67.4105 153.704 67.5519 153.555C67.6933 153.406 67.6852 153.073 67.8468 152.941C68.0084 152.809 68.3073 152.907 68.4811 152.801C68.6548 152.694 68.7275 152.375 68.9174 152.289C69.1073 152.204 69.3699 152.379 69.5638 152.324C69.7577 152.268 69.9072 151.978 70.1092 151.953C70.3112 151.927 70.5132 152.166 70.7313 152.166C70.9495 152.166 71.1353 151.923 71.3495 151.953C71.5636 151.983 71.7009 152.272 71.8948 152.324C72.0888 152.375 72.3595 152.209 72.5453 152.289C72.7311 152.37 72.8039 152.694 72.9776 152.801C73.1513 152.907 73.4543 152.801 73.6159 152.941C73.7775 153.082 73.7654 153.406 73.9068 153.555C74.0482 153.704 74.3673 153.695 74.4885 153.866C74.6097 154.036 74.5208 154.351 74.6219 154.534C74.7229 154.718 75.0259 154.794 75.1067 154.995C75.1875 155.195 75.0218 155.472 75.0743 155.676C75.1269 155.881 75.4016 156.043 75.4258 156.256C75.4501 156.469 75.2238 156.682 75.2238 156.907C75.2238 157.133 75.4541 157.333 75.4258 157.559C75.3975 157.785 75.1228 157.93 75.0743 158.134C75.0259 158.339 75.1834 158.624 75.1067 158.82C75.0299 159.016 74.7027 159.093 74.6219 159.276C74.541 159.459 74.6219 159.779 74.4885 159.949C74.3552 160.119 74.0522 160.107 73.9068 160.26C73.7613 160.413 73.7734 160.741 73.6118 160.869C73.4502 160.997 73.1513 160.903 72.9776 161.014C72.8039 161.125 72.7311 161.44 72.5413 161.521C72.3514 161.602 72.0888 161.431 71.8948 161.487C71.7009 161.542 71.5515 161.832 71.3495 161.862C71.1475 161.892 70.9455 161.644 70.7313 161.644C70.5172 161.644 70.3273 161.887 70.1092 161.857C69.891 161.828 69.7577 161.538 69.5638 161.487C69.3699 161.436 69.0992 161.602 68.9174 161.521C68.7356 161.44 68.6548 161.116 68.4811 161.01C68.3073 160.903 68.0043 161.01 67.8427 160.869C67.6811 160.729 67.6933 160.409 67.5519 160.256C67.4105 160.102 67.0913 160.115 66.9701 159.949C66.8489 159.783 66.9378 159.459 66.8368 159.276C66.7358 159.093 66.4328 159.016 66.352 158.82C66.2712 158.624 66.4368 158.339 66.3843 158.134C66.3318 157.93 66.0571 157.772 66.0328 157.559C66.0086 157.346 66.2348 157.12 66.2348 156.907ZM58.0053 165.581C58.0053 165.368 57.7791 165.155 57.8033 164.929C57.8276 164.703 58.1063 164.558 58.1589 164.354C58.2114 164.149 58.0457 163.864 58.1225 163.668C58.1993 163.472 58.5265 163.395 58.6073 163.212C58.6881 163.029 58.6073 162.709 58.7406 162.539C58.8739 162.369 59.181 162.381 59.3224 162.228C59.4638 162.075 59.4557 161.747 59.6173 161.619C59.7789 161.491 60.0779 161.581 60.2516 161.474C60.4253 161.368 60.5021 161.048 60.6879 160.967C60.8737 160.886 61.1404 161.057 61.3383 161.001C61.5363 160.946 61.6817 160.656 61.8837 160.626C62.0857 160.596 62.2877 160.844 62.5019 160.844C62.716 160.844 62.9059 160.601 63.12 160.626C63.3341 160.652 63.4715 160.946 63.6654 161.001C63.8593 161.057 64.13 160.886 64.3158 160.967C64.5017 161.048 64.5744 161.372 64.7481 161.474C64.9218 161.576 65.2248 161.474 65.3864 161.619C65.548 161.764 65.5399 162.079 65.6813 162.232C65.8227 162.386 66.1379 162.373 66.2591 162.539C66.3803 162.705 66.2954 163.029 66.3964 163.212C66.4974 163.395 66.8004 163.472 66.8812 163.668C66.962 163.864 66.7923 164.149 66.8449 164.354C66.8974 164.558 67.1721 164.716 67.2004 164.929C67.2287 165.142 66.9984 165.355 66.9984 165.581C66.9984 165.806 67.2246 166.028 67.2004 166.232C67.1761 166.437 66.8974 166.607 66.8449 166.812C66.7923 167.016 66.958 167.302 66.8812 167.493C66.8045 167.685 66.4772 167.77 66.3964 167.953C66.3156 168.137 66.3964 168.456 66.2591 168.622C66.1217 168.788 65.8227 168.784 65.6813 168.933C65.5399 169.082 65.544 169.415 65.3864 169.547C65.2289 169.679 64.9259 169.581 64.7481 169.687C64.5703 169.794 64.5017 170.113 64.3158 170.199C64.13 170.284 63.8593 170.105 63.6654 170.16C63.4715 170.216 63.322 170.509 63.12 170.535C62.918 170.561 62.716 170.322 62.5019 170.322C62.2877 170.322 62.0979 170.565 61.8837 170.535C61.6696 170.505 61.5282 170.216 61.3383 170.16C61.1485 170.105 60.8737 170.279 60.6879 170.199C60.5021 170.118 60.4253 169.794 60.2516 169.687C60.0779 169.581 59.7749 169.687 59.6173 169.547C59.4597 169.406 59.4638 169.082 59.3224 168.933C59.181 168.784 58.8659 168.793 58.7406 168.622C58.6154 168.452 58.7083 168.137 58.6073 167.953C58.5063 167.77 58.2033 167.694 58.1225 167.493C58.0417 167.293 58.2114 167.016 58.1589 166.808C58.1063 166.599 57.8276 166.445 57.8033 166.232C57.7791 166.019 58.0053 165.798 58.0053 165.581Z" fill="#616161"/>
<path opacity="0.53" d="M72.3958 185.313C72.3958 185.483 72.6382 185.611 72.6786 185.773C72.719 185.935 72.5897 186.161 72.6503 186.314C72.7109 186.467 72.9533 186.531 73.0543 186.676C73.1553 186.821 73.0543 187.077 73.1594 187.209C73.2644 187.341 73.5068 187.336 73.6199 187.456C73.7331 187.575 73.729 187.839 73.8543 187.941C73.9795 188.044 74.2219 187.971 74.3593 188.056C74.4966 188.142 74.5572 188.397 74.7027 188.461C74.8481 188.525 75.0663 188.389 75.2198 188.431C75.3733 188.474 75.4945 188.704 75.6521 188.73C75.8096 188.755 75.9833 188.559 76.1449 188.559C76.3065 188.559 76.4762 188.751 76.6338 188.73C76.7913 188.708 76.9125 188.474 77.0661 188.431C77.2196 188.389 77.4377 188.525 77.5832 188.461C77.7286 188.397 77.7892 188.137 77.9266 188.056C78.0639 187.975 78.3063 188.056 78.4316 187.941C78.5568 187.826 78.5528 187.575 78.6659 187.456C78.779 187.336 79.0295 187.345 79.1265 187.209C79.2234 187.072 79.1507 186.825 79.2315 186.676C79.3123 186.527 79.5547 186.472 79.6355 186.314C79.7163 186.156 79.5668 185.935 79.6113 185.773C79.6557 185.611 79.8698 185.483 79.89 185.313C79.9102 185.143 79.7325 184.968 79.7325 184.798C79.7325 184.627 79.9102 184.444 79.89 184.282C79.8698 184.12 79.6517 183.984 79.6113 183.822C79.5709 183.66 79.7001 183.434 79.6395 183.281C79.5789 183.128 79.3325 183.064 79.2355 182.919C79.1386 182.774 79.2355 182.518 79.1305 182.386C79.0255 182.254 78.7831 182.259 78.6699 182.139C78.5568 182.02 78.5649 181.756 78.4356 181.654C78.3063 181.551 78.072 181.624 77.9306 181.539C77.7892 181.453 77.7367 181.198 77.5872 181.134C77.4377 181.07 77.2277 181.206 77.0701 181.164C76.9125 181.121 76.7994 180.891 76.6378 180.866C76.4762 180.84 76.3106 181.036 76.149 181.036C75.9874 181.036 75.8137 180.844 75.6561 180.866C75.4985 180.887 75.3773 181.121 75.2238 181.164C75.0703 181.206 74.8562 181.07 74.7107 181.134C74.5653 181.198 74.5007 181.453 74.3633 181.539C74.2259 181.624 73.9876 181.539 73.8583 181.654C73.729 181.769 73.7371 182.02 73.624 182.139C73.5109 182.259 73.2644 182.25 73.1675 182.382C73.0705 182.514 73.1392 182.77 73.0584 182.915C72.9776 183.059 72.7352 183.123 72.6544 183.281C72.5736 183.439 72.7231 183.66 72.6827 183.822C72.6423 183.984 72.42 184.112 72.3998 184.278C72.3797 184.444 72.5615 184.627 72.5615 184.798C72.5615 184.968 72.3756 185.151 72.3958 185.313ZM67.3135 174.118C67.3135 173.9 67.0832 173.692 67.1115 173.466C67.1398 173.24 67.4145 173.091 67.467 172.887C67.5195 172.682 67.3539 172.397 67.4307 172.205C67.5074 172.013 67.8145 171.928 67.9155 171.745C68.0165 171.562 67.9155 171.242 68.0488 171.076C68.1821 170.91 68.4891 170.914 68.6305 170.765C68.7719 170.616 68.7639 170.284 68.9255 170.152C69.0871 170.02 69.386 170.118 69.5597 170.011C69.7335 169.905 69.8062 169.585 69.9961 169.5C70.1859 169.415 70.4485 169.594 70.6465 169.538C70.8445 169.483 70.9899 169.189 71.1919 169.163C71.3939 169.138 71.5959 169.376 71.81 169.376C72.0241 169.376 72.214 169.134 72.4281 169.163C72.6423 169.193 72.7796 169.483 72.9735 169.538C73.1675 169.594 73.4381 169.419 73.624 169.5C73.8098 169.581 73.8825 169.905 74.0563 170.011C74.23 170.118 74.533 170.011 74.6946 170.152C74.8562 170.292 74.8441 170.616 74.9895 170.765C75.1349 170.914 75.446 170.906 75.5672 171.076C75.6884 171.246 75.6036 171.562 75.7046 171.745C75.8056 171.928 76.1086 172.005 76.1853 172.205C76.2621 172.405 76.1005 172.682 76.153 172.891C76.2055 173.1 76.4803 173.253 76.5085 173.466C76.5368 173.679 76.3025 173.892 76.3025 174.118C76.3025 174.343 76.5328 174.544 76.5085 174.769C76.4843 174.995 76.2055 175.14 76.153 175.345C76.1005 175.549 76.2621 175.834 76.1853 176.03C76.1086 176.226 75.8015 176.303 75.7046 176.486C75.6076 176.669 75.7046 176.989 75.5672 177.159C75.4299 177.33 75.1309 177.317 74.9855 177.47C74.84 177.624 74.8521 177.952 74.6946 178.08C74.537 178.207 74.23 178.118 74.0563 178.224C73.8825 178.331 73.8098 178.65 73.624 178.731C73.4381 178.812 73.1675 178.642 72.9735 178.697C72.7796 178.753 72.6301 179.042 72.4281 179.072C72.2261 179.102 72.0241 178.855 71.81 178.855C71.5959 178.855 71.406 179.098 71.1919 179.072C70.9778 179.047 70.8364 178.753 70.6425 178.697C70.4485 178.642 70.1779 178.812 69.9961 178.731C69.8143 178.65 69.7335 178.327 69.5597 178.224C69.386 178.122 69.083 178.224 68.9255 178.08C68.7679 177.935 68.7719 177.619 68.6305 177.466C68.4891 177.313 68.174 177.325 68.0488 177.159C67.9235 176.993 68.0165 176.669 67.9155 176.486C67.8145 176.303 67.5115 176.226 67.4307 176.03C67.3499 175.834 67.5155 175.549 67.467 175.345C67.4185 175.14 67.1357 174.982 67.1115 174.769C67.0873 174.556 67.3135 174.352 67.3135 174.118ZM66.7641 193.168C66.7641 192.951 66.5378 192.742 66.5621 192.517C66.5863 192.291 66.8651 192.146 66.9176 191.942C66.9701 191.737 66.8045 191.452 66.8812 191.256C66.958 191.06 67.2852 190.979 67.366 190.796C67.4468 190.612 67.366 190.293 67.4993 190.127C67.6327 189.961 67.9397 189.965 68.0811 189.816C68.2225 189.667 68.2144 189.334 68.376 189.202C68.5376 189.07 68.8366 189.168 69.0103 189.062C69.184 188.955 69.2608 188.636 69.4466 188.551C69.6325 188.465 69.8991 188.644 70.0971 188.589C70.295 188.534 70.4405 188.244 70.6425 188.214C70.8445 188.184 71.0465 188.427 71.2606 188.427C71.4747 188.427 71.6646 188.188 71.8787 188.214C72.0928 188.24 72.2302 188.534 72.4241 188.589C72.618 188.644 72.8887 188.47 73.0745 188.551C73.2604 188.632 73.3331 188.955 73.5068 189.062C73.6805 189.168 73.9835 189.062 74.1451 189.207C74.3067 189.351 74.2946 189.667 74.4401 189.816C74.5855 189.965 74.8966 189.961 75.0178 190.127C75.139 190.293 75.0541 190.612 75.1551 190.8C75.2561 190.987 75.5591 191.06 75.6399 191.256C75.7207 191.452 75.5511 191.733 75.6036 191.942C75.6561 192.15 75.9308 192.304 75.9591 192.517C75.9874 192.73 75.7571 192.943 75.7571 193.168C75.7571 193.394 75.9833 193.594 75.9591 193.82C75.9349 194.046 75.6561 194.191 75.6036 194.395C75.5511 194.6 75.7167 194.885 75.6399 195.081C75.5632 195.277 75.2359 195.358 75.1551 195.541C75.0743 195.724 75.1551 196.044 75.0178 196.21C74.8804 196.376 74.5815 196.372 74.4401 196.521C74.2987 196.67 74.3027 197.002 74.1451 197.134C73.9876 197.267 73.6805 197.169 73.5068 197.275C73.3331 197.382 73.2604 197.701 73.0745 197.786C72.8887 197.871 72.618 197.693 72.4241 197.748C72.2302 197.803 72.0807 198.093 71.8787 198.123C71.6767 198.153 71.4747 197.91 71.2606 197.91C71.0465 197.91 70.8566 198.148 70.6425 198.123C70.4283 198.097 70.2869 197.803 70.0971 197.748C69.9072 197.693 69.6325 197.867 69.4466 197.786C69.2608 197.705 69.184 197.382 69.0103 197.275C68.8366 197.169 68.5336 197.275 68.376 197.13C68.2185 196.985 68.2225 196.67 68.0811 196.521C67.9397 196.372 67.6246 196.38 67.4993 196.21C67.3741 196.04 67.467 195.724 67.366 195.537C67.265 195.35 66.962 195.277 66.8812 195.081C66.8004 194.885 66.9701 194.604 66.9176 194.395C66.8651 194.187 66.5863 194.033 66.5621 193.82C66.5378 193.607 66.7641 193.386 66.7641 193.168ZM76.0561 195.874C76.0561 195.733 75.8217 195.575 75.8379 195.448C75.8541 195.32 76.1207 195.217 76.153 195.081C76.1853 194.945 76.0035 194.732 76.052 194.604C76.1005 194.476 76.3793 194.459 76.456 194.34C76.5328 194.221 76.3954 193.957 76.456 193.846C76.5166 193.735 76.8075 193.799 76.9004 193.701C76.9933 193.603 76.9368 193.313 77.0418 193.228C77.1469 193.143 77.3933 193.279 77.5064 193.207C77.6195 193.134 77.6357 192.849 77.7569 192.781C77.8781 192.713 78.0841 192.921 78.2134 192.887C78.3427 192.853 78.4235 192.572 78.5568 192.555C78.6901 192.538 78.8356 192.781 78.9608 192.781C79.0861 192.781 79.2436 192.538 79.3648 192.555C79.486 192.572 79.583 192.849 79.7123 192.887C79.8415 192.926 80.0435 192.725 80.1688 192.781C80.294 192.836 80.3021 193.126 80.4193 193.207C80.5364 193.288 80.7788 193.147 80.8839 193.232C80.9889 193.318 80.9283 193.599 81.0253 193.701C81.1222 193.803 81.3889 193.735 81.4697 193.846C81.5505 193.957 81.4212 194.216 81.4899 194.34C81.5585 194.463 81.8333 194.472 81.8939 194.604C81.9545 194.736 81.7605 194.949 81.7929 195.085C81.8252 195.222 82.0918 195.307 82.108 195.448C82.1241 195.588 81.8939 195.741 81.8939 195.874C81.8939 196.006 82.1241 196.176 82.108 196.3C82.0918 196.423 81.8292 196.53 81.7929 196.662C81.7565 196.794 81.9464 197.015 81.8939 197.143C81.8413 197.271 81.5666 197.288 81.4899 197.407C81.4131 197.526 81.5505 197.786 81.4697 197.897C81.3889 198.008 81.1182 197.948 81.0212 198.046C80.9243 198.144 80.9889 198.43 80.8839 198.515C80.7788 198.6 80.5324 198.468 80.4152 198.536C80.2981 198.604 80.29 198.898 80.1647 198.962C80.0395 199.026 79.8415 198.817 79.7123 198.856C79.583 198.894 79.4981 199.167 79.3648 199.188C79.2315 199.209 79.0861 198.958 78.9608 198.958C78.8356 198.958 78.678 199.205 78.5568 199.188C78.4356 199.171 78.3427 198.89 78.2134 198.856C78.0841 198.821 77.8781 199.013 77.7569 198.962C77.6357 198.911 77.6236 198.617 77.5064 198.536C77.3892 198.455 77.1469 198.6 77.0418 198.515C76.9368 198.43 76.9933 198.144 76.9004 198.046C76.8075 197.948 76.5368 198.008 76.456 197.897C76.3752 197.786 76.5005 197.526 76.456 197.407C76.4116 197.288 76.1126 197.271 76.052 197.143C75.9914 197.015 76.1894 196.798 76.153 196.662C76.1166 196.525 75.8581 196.44 75.8379 196.3C75.8177 196.159 76.0561 196.018 76.0561 195.874ZM66.2348 156.907C66.2348 156.69 66.0045 156.46 66.0328 156.251C66.0611 156.043 66.3358 155.881 66.3843 155.676C66.4328 155.472 66.2752 155.186 66.352 154.995C66.4287 154.803 66.756 154.718 66.8368 154.534C66.9176 154.351 66.8368 154.032 66.9701 153.866C67.1034 153.7 67.4105 153.704 67.5519 153.555C67.6933 153.406 67.6852 153.073 67.8468 152.941C68.0084 152.809 68.3073 152.907 68.4811 152.801C68.6548 152.694 68.7275 152.375 68.9174 152.289C69.1073 152.204 69.3699 152.379 69.5638 152.324C69.7577 152.268 69.9072 151.978 70.1092 151.953C70.3112 151.927 70.5132 152.166 70.7313 152.166C70.9495 152.166 71.1353 151.923 71.3495 151.953C71.5636 151.983 71.7009 152.272 71.8948 152.324C72.0888 152.375 72.3595 152.209 72.5453 152.289C72.7311 152.37 72.8039 152.694 72.9776 152.801C73.1513 152.907 73.4543 152.801 73.6159 152.941C73.7775 153.082 73.7654 153.406 73.9068 153.555C74.0482 153.704 74.3673 153.695 74.4885 153.866C74.6097 154.036 74.5208 154.351 74.6219 154.534C74.7229 154.718 75.0259 154.794 75.1067 154.995C75.1875 155.195 75.0218 155.472 75.0743 155.676C75.1269 155.881 75.4016 156.043 75.4258 156.256C75.4501 156.469 75.2238 156.682 75.2238 156.907C75.2238 157.133 75.4541 157.333 75.4258 157.559C75.3975 157.785 75.1228 157.93 75.0743 158.134C75.0259 158.339 75.1834 158.624 75.1067 158.82C75.0299 159.016 74.7027 159.093 74.6219 159.276C74.541 159.459 74.6219 159.779 74.4885 159.949C74.3552 160.119 74.0522 160.107 73.9068 160.26C73.7613 160.413 73.7734 160.741 73.6118 160.869C73.4502 160.997 73.1513 160.903 72.9776 161.014C72.8039 161.125 72.7311 161.44 72.5413 161.521C72.3514 161.602 72.0888 161.431 71.8948 161.487C71.7009 161.542 71.5515 161.832 71.3495 161.862C71.1475 161.892 70.9455 161.644 70.7313 161.644C70.5172 161.644 70.3273 161.887 70.1092 161.857C69.891 161.828 69.7577 161.538 69.5638 161.487C69.3699 161.436 69.0992 161.602 68.9174 161.521C68.7356 161.44 68.6548 161.116 68.4811 161.01C68.3073 160.903 68.0043 161.01 67.8427 160.869C67.6811 160.729 67.6933 160.409 67.5519 160.256C67.4105 160.102 67.0913 160.115 66.9701 159.949C66.8489 159.783 66.9378 159.459 66.8368 159.276C66.7358 159.093 66.4328 159.016 66.352 158.82C66.2712 158.624 66.4368 158.339 66.3843 158.134C66.3318 157.93 66.0571 157.772 66.0328 157.559C66.0086 157.346 66.2348 157.12 66.2348 156.907ZM58.0053 165.581C58.0053 165.368 57.7791 165.155 57.8033 164.929C57.8276 164.703 58.1063 164.558 58.1589 164.354C58.2114 164.149 58.0457 163.864 58.1225 163.668C58.1993 163.472 58.5265 163.395 58.6073 163.212C58.6881 163.029 58.6073 162.709 58.7406 162.539C58.8739 162.369 59.181 162.381 59.3224 162.228C59.4638 162.075 59.4557 161.747 59.6173 161.619C59.7789 161.491 60.0779 161.581 60.2516 161.474C60.4253 161.368 60.5021 161.048 60.6879 160.967C60.8737 160.886 61.1404 161.057 61.3383 161.001C61.5363 160.946 61.6817 160.656 61.8837 160.626C62.0857 160.596 62.2877 160.844 62.5019 160.844C62.716 160.844 62.9059 160.601 63.12 160.626C63.3341 160.652 63.4715 160.946 63.6654 161.001C63.8593 161.057 64.13 160.886 64.3158 160.967C64.5017 161.048 64.5744 161.372 64.7481 161.474C64.9218 161.576 65.2248 161.474 65.3864 161.619C65.548 161.764 65.5399 162.079 65.6813 162.232C65.8227 162.386 66.1379 162.373 66.2591 162.539C66.3803 162.705 66.2954 163.029 66.3964 163.212C66.4974 163.395 66.8004 163.472 66.8812 163.668C66.962 163.864 66.7923 164.149 66.8449 164.354C66.8974 164.558 67.1721 164.716 67.2004 164.929C67.2287 165.142 66.9984 165.355 66.9984 165.581C66.9984 165.806 67.2246 166.028 67.2004 166.232C67.1761 166.437 66.8974 166.607 66.8449 166.812C66.7923 167.016 66.958 167.302 66.8812 167.493C66.8045 167.685 66.4772 167.77 66.3964 167.953C66.3156 168.137 66.3964 168.456 66.2591 168.622C66.1217 168.788 65.8227 168.784 65.6813 168.933C65.5399 169.082 65.544 169.415 65.3864 169.547C65.2289 169.679 64.9259 169.581 64.7481 169.687C64.5703 169.794 64.5017 170.113 64.3158 170.199C64.13 170.284 63.8593 170.105 63.6654 170.16C63.4715 170.216 63.322 170.509 63.12 170.535C62.918 170.561 62.716 170.322 62.5019 170.322C62.2877 170.322 62.0979 170.565 61.8837 170.535C61.6696 170.505 61.5282 170.216 61.3383 170.16C61.1485 170.105 60.8737 170.279 60.6879 170.199C60.5021 170.118 60.4253 169.794 60.2516 169.687C60.0779 169.581 59.7749 169.687 59.6173 169.547C59.4597 169.406 59.4638 169.082 59.3224 168.933C59.181 168.784 58.8659 168.793 58.7406 168.622C58.6154 168.452 58.7083 168.137 58.6073 167.953C58.5063 167.77 58.2033 167.694 58.1225 167.493C58.0417 167.293 58.2114 167.016 58.1589 166.808C58.1063 166.599 57.8276 166.445 57.8033 166.232C57.7791 166.019 58.0053 165.798 58.0053 165.581Z" fill="white"/>
<path d="M105.455 222.401L92.6523 221.898C92.5206 221.89 92.3889 221.911 92.2657 221.961C92.1424 222.01 92.0304 222.086 91.937 222.184C91.8436 222.282 91.7709 222.4 91.7236 222.53C91.6762 222.66 91.6554 222.798 91.6625 222.937C91.6619 222.999 91.6739 223.059 91.6976 223.115C91.7214 223.171 91.7563 223.221 91.8 223.262C91.8438 223.302 91.8953 223.332 91.951 223.35C92.0068 223.367 92.0654 223.372 92.123 223.363C92.6122 223.383 93.0983 223.273 93.537 223.044L103.637 226.239C103.637 226.239 106.97 227.087 105.455 222.401Z" fill="#263238" stroke="#263238" stroke-linecap="round" stroke-linejoin="round"/>
<path d="M104.95 210.899V223.466L87.477 233.051C87.477 233.051 86.164 234.968 87.679 235.181C87.9135 235.24 88.1574 235.244 88.3935 235.192C88.6296 235.14 88.852 235.035 89.0449 234.882C89.2377 234.73 89.3963 234.534 89.5094 234.31C89.6225 234.085 89.6872 233.837 89.699 233.583C89.699 233.583 108.687 227.513 109.091 227.513C109.495 227.513 127.473 232.625 127.473 232.625C127.473 232.625 126.766 233.477 128.079 233.903C129.392 234.329 129.493 232.625 129.089 231.986C128.685 231.347 109.495 222.614 109.495 222.614V211.218L104.95 210.899Z" fill="#263238" stroke="#263238" stroke-linecap="round" stroke-linejoin="round"/>
<path d="M132.555 183.473C131.686 183.326 130.847 183.028 130.071 182.591C128.573 181.703 127.161 180.661 125.857 179.481C122.516 176.482 119.284 170.322 116.456 167.021C113.628 163.719 108.174 161.909 100.397 162.761C92.62 163.613 88.681 166.914 87.166 171.174C85.651 175.434 85.449 179.481 83.833 183.209C82.217 186.936 78.783 188.321 79.389 192.155C79.995 195.989 83.53 202.272 90.802 207.171C98.074 212.07 106.659 213.881 116.254 212.816C125.849 211.751 129.788 207.384 133.121 202.272C136.454 197.16 136.858 191.09 136.353 187.895C135.933 185.177 134.188 183.771 132.555 183.473Z" fill="white" stroke="#263238" stroke-linecap="round" stroke-linejoin="round"/>
<path opacity="0.17" d="M95.7306 168.149C94.1247 168.897 92.6602 169.945 91.4078 171.242C87.8607 174.88 89.3878 179.903 88.2526 184.448C87.8394 186.029 87.2721 187.561 86.5598 189.019C86.5598 189.019 87.9496 198.153 93.5167 201.74C99.0838 205.326 108.061 207.772 115.628 206.302C123.195 204.832 127.222 200.598 129.077 197.011C130.931 193.424 130.143 187.558 125.344 184.15C120.544 180.742 117.458 173.879 113.127 170.62C107.972 166.718 101.261 165.572 95.7306 168.149Z" fill="black"/>
<path d="M134.046 184.065C133.671 184.071 133.297 184.105 132.927 184.167C132.927 184.167 130.705 184.061 129.291 187.788C127.877 191.516 128.887 195.669 127.069 198.651C125.251 201.633 123.837 201.953 112.222 202.059C100.607 202.166 96.567 204.296 91.921 197.906C87.275 191.516 89.093 188.321 85.255 186.83C83.3602 186.093 82.1321 186.344 81.215 187.081C80.003 188.568 79.0374 189.961 79.3849 192.155C79.9909 195.989 83.5259 202.272 90.7979 207.171C98.0699 212.07 106.655 213.881 116.25 212.816C125.845 211.751 129.784 207.384 133.117 202.272C136.45 197.16 136.854 191.09 136.349 187.895C136.255 187.117 136 186.371 135.602 185.709C135.204 185.047 134.673 184.486 134.046 184.065Z" fill="white"/>
<mask id="mask1_160_2" style="mask-type:luminance" maskUnits="userSpaceOnUse" x="79" y="184" width="58" height="30">
<path d="M134.046 184.065C133.671 184.071 133.297 184.105 132.927 184.167C132.927 184.167 130.705 184.061 129.291 187.788C127.877 191.516 128.887 195.669 127.069 198.651C125.251 201.633 123.837 201.953 112.222 202.059C100.607 202.166 96.567 204.296 91.921 197.906C87.275 191.516 89.093 188.321 85.255 186.83C83.3602 186.093 82.1321 186.344 81.215 187.081C80.003 188.568 79.0374 189.961 79.3849 192.155C79.9909 195.989 83.5259 202.272 90.7979 207.171C98.0699 212.07 106.655 213.881 116.25 212.816C125.845 211.751 129.784 207.384 133.117 202.272C136.45 197.16 136.854 191.09 136.349 187.895C136.255 187.117 136 186.371 135.602 185.709C135.204 185.047 134.673 184.486 134.046 184.065Z" fill="white"/>
</mask>
<g mask="url(#mask1_160_2)">
<path opacity="0.17" d="M134.046 184.065C133.671 184.071 133.297 184.105 132.927 184.167C132.927 184.167 130.705 184.061 129.291 187.788C127.877 191.516 128.887 195.669 127.069 198.651C125.251 201.633 123.837 201.953 112.222 202.059C100.607 202.166 96.567 204.296 91.921 197.906C87.275 191.516 89.093 188.321 85.255 186.83C83.3602 186.093 82.1321 186.344 81.215 187.081C80.003 188.568 79.0374 189.961 79.3849 192.155C79.9909 195.989 83.5259 202.272 90.7979 207.171C98.0699 212.07 106.655 213.881 116.25 212.816C125.845 211.751 129.784 207.384 133.117 202.272C136.45 197.16 136.854 191.09 136.349 187.895C136.255 187.117 136 186.371 135.602 185.709C135.204 185.047 134.673 184.486 134.046 184.065Z" fill="black"/>
</g>
<path d="M134.046 184.065C133.671 184.071 133.297 184.105 132.927 184.167C132.927 184.167 130.705 184.061 129.291 187.788C127.877 191.516 128.887 195.669 127.069 198.651C125.251 201.633 123.837 201.953 112.222 202.059C100.607 202.166 96.567 204.296 91.921 197.906C87.275 191.516 89.093 188.321 85.255 186.83C83.3602 186.093 82.1321 186.344 81.215 187.081C80.003 188.568 79.0374 189.961 79.3849 192.155C79.9909 195.989 83.5259 202.272 90.7979 207.171C98.0699 212.07 106.655 213.881 116.25 212.816C125.845 211.751 129.784 207.384 133.117 202.272C136.45 197.16 136.854 191.09 136.349 187.895C136.255 187.117 136 186.371 135.602 185.709C135.204 185.047 134.673 184.486 134.046 184.065Z" stroke="#263238" stroke-linecap="round" stroke-linejoin="round"/>
<path d="M99.892 179.89C99.892 179.89 95.246 185.215 93.933 190.327C92.62 195.439 94.741 201.083 98.478 202.468C102.215 203.852 107.669 201.935 110.194 200.87C112.719 199.805 116.456 201.722 120.597 201.829C124.738 201.935 125.344 193.22 124.342 187.984C123.34 182.748 118.888 178.079 114.545 177.334C110.202 176.588 102.122 177.032 99.892 179.89Z" fill="#263238" stroke="#263238" stroke-linecap="round" stroke-linejoin="round"/>
<path d="M115.377 147.088C115.377 147.088 119.377 149.158 121.34 149.712C123.304 150.266 127.829 150.27 128.055 152.021C128.281 153.772 127.376 163.319 126.843 166.42C126.31 169.521 126.241 174.139 126.54 175.332C126.839 176.525 127.752 178.433 126.693 180.346C125.635 182.259 125.033 184.721 122.617 184.32C120.201 183.92 119.599 182.092 119.599 182.092L104.889 184.005C104.889 184.005 103.754 177.717 102.465 172.15C101.177 166.582 98.5426 158.624 98.7688 154.807C98.9951 150.99 103.673 148.6 106.917 147.488C110.162 146.377 115.377 147.088 115.377 147.088Z" fill="#616161"/>
<mask id="mask2_160_2" style="mask-type:luminance" maskUnits="userSpaceOnUse" x="98" y="146" width="31" height="39">
<path d="M115.377 147.088C115.377 147.088 119.377 149.158 121.34 149.712C123.304 150.266 127.829 150.27 128.055 152.021C128.281 153.772 127.376 163.319 126.843 166.42C126.31 169.521 126.241 174.139 126.54 175.332C126.839 176.525 127.752 178.433 126.693 180.346C125.635 182.259 125.033 184.721 122.617 184.32C120.201 183.92 119.599 182.092 119.599 182.092L104.889 184.005C104.889 184.005 103.754 177.717 102.465 172.15C101.177 166.582 98.5426 158.624 98.7688 154.807C98.9951 150.99 103.673 148.6 106.917 147.488C110.162 146.377 115.377 147.088 115.377 147.088Z" fill="white"/>
</mask>
<g mask="url(#mask2_160_2)">
<path opacity="0.17" d="M126.305 157.465C125.926 158.743 124.184 163.374 124.184 163.374C124.184 163.374 124.875 159.114 125.34 155.706C125.804 152.298 125.917 152.664 124.415 152.664C122.912 152.664 120.257 151.322 119.336 150.837C118.415 150.351 118.872 151.446 117.951 150.713C117.029 149.981 115.64 147.672 115.64 147.672C113.099 147.062 102.942 148.404 102.017 151.446C101.399 153.478 101.71 163.97 102.421 171.958L102.469 172.158C103.342 175.95 104.146 180.069 104.57 182.314C104.962 182.918 105.454 183.443 106.02 183.865L119.486 182.118C121.158 180.218 122.459 177.56 122.904 177.006C123.425 176.371 125.097 175.183 125.215 174.084C125.332 172.985 124.754 165.44 125.332 162.765C125.78 160.72 126.152 158.326 126.305 157.465ZM123.029 169.819C121.53 171.89 117.486 170.429 115.179 169.577C112.872 168.725 110.792 171.281 108.251 170.671C105.709 170.062 108.828 166.169 112.06 166.045C115.292 165.921 114.484 165.802 117.373 162.151C120.261 158.501 121.991 161.785 123.146 164.584C123.482 165.416 123.645 166.313 123.625 167.217C123.605 168.121 123.401 169.009 123.029 169.824V169.819Z" fill="black"/>
<path d="M126.471 152.106C126.471 152.106 126.394 155.842 125.792 157.832C125.19 159.821 124.132 163.323 124.132 165.312C124.132 167.302 124.508 170.164 123.906 171.996C123.304 173.828 120.585 176.682 120.585 179.473" stroke="#263238" stroke-linecap="round" stroke-linejoin="round"/>
</g>
<path d="M115.377 147.088C115.377 147.088 119.377 149.158 121.34 149.712C123.304 150.266 127.829 150.27 128.055 152.021C128.281 153.772 127.376 163.319 126.843 166.42C126.31 169.521 126.241 174.139 126.54 175.332C126.839 176.525 127.752 178.433 126.693 180.346C125.635 182.259 125.033 184.721 122.617 184.32C120.201 183.92 119.599 182.092 119.599 182.092L104.889 184.005C104.889 184.005 103.754 177.717 102.465 172.15C101.177 166.582 98.5426 158.624 98.7688 154.807C98.9951 150.99 103.673 148.6 106.917 147.488C110.162 146.377 115.377 147.088 115.377 147.088Z" stroke="#263238" stroke-linecap="round" stroke-linejoin="round"/>
<path d="M103.686 166.744C103.686 166.744 104.138 172.392 104.59 174.94C104.858 176.41 105.034 177.897 105.12 179.392C105.12 179.392 106.93 178.995 107.305 180.508C107.507 181.392 107.465 182.318 107.184 183.177C106.904 184.037 106.396 184.794 105.722 185.36C104.211 186.553 102.175 187.349 100.668 186.872C99.1607 186.395 98.6476 182.416 98.6476 179.95C98.6476 177.483 98.6477 174.301 97.9689 172.473C97.2902 170.646 99.2334 164.673 103.686 166.744Z" fill="#616161"/>
<mask id="mask3_160_2" style="mask-type:luminance" maskUnits="userSpaceOnUse" x="97" y="166" width="11" height="22">
<path d="M103.686 166.744C103.686 166.744 104.138 172.392 104.59 174.94C104.858 176.41 105.034 177.897 105.12 179.392C105.12 179.392 106.93 178.995 107.305 180.508C107.507 181.392 107.465 182.318 107.184 183.177C106.904 184.037 106.396 184.794 105.722 185.36C104.211 186.553 102.175 187.349 100.668 186.872C99.1607 186.395 98.6476 182.416 98.6476 179.95C98.6476 177.483 98.6477 174.301 97.9689 172.473C97.2902 170.646 99.2334 164.673 103.686 166.744Z" fill="white"/>
</mask>
<g mask="url(#mask3_160_2)">
<path opacity="0.17" d="M105.411 181.743C104.308 181.999 101.863 182.386 101.617 181.355C101.371 180.325 103.007 179.153 103.007 179.153L104.308 179.289V178.386C104.308 178.386 103.698 173.1 103.096 171.144C102.494 169.189 99.1809 171.144 97.9568 172.452C98.6395 174.28 98.6395 177.462 98.6395 179.928C98.6395 182.395 99.1647 186.374 100.66 186.851C102.154 187.328 104.203 186.531 105.714 185.339C106.502 184.693 107.057 183.782 107.285 182.757C107.095 182.419 106.818 182.145 106.486 181.965C106.155 181.786 105.782 181.709 105.411 181.743Z" fill="black"/>
</g>
<path d="M103.686 166.744C103.686 166.744 104.138 172.392 104.59 174.94C104.858 176.41 105.034 177.897 105.12 179.392C105.12 179.392 106.93 178.995 107.305 180.508C107.507 181.392 107.465 182.318 107.184 183.177C106.904 184.037 106.396 184.794 105.722 185.36C104.211 186.553 102.175 187.349 100.668 186.872C99.1607 186.395 98.6476 182.416 98.6476 179.95C98.6476 177.483 98.6477 174.301 97.9689 172.473C97.2902 170.646 99.2334 164.673 103.686 166.744Z" stroke="#263238" stroke-linecap="round" stroke-linejoin="round"/>
<path d="M105.495 179.63C104.656 179.532 103.825 179.373 103.007 179.153C101.419 178.757 100.441 179.553 100.138 181.781" stroke="#263238" stroke-linecap="round" stroke-linejoin="round"/>
<path d="M107.911 150.496C107.911 150.496 107.685 153.998 107.156 157.099C106.872 158.899 106.283 160.63 105.419 162.211C105.419 162.211 105.419 155.131 104.364 151.71C103.31 148.289 103.686 145.823 105.269 146.598C106.853 147.373 107.911 150.496 107.911 150.496Z" fill="#263238" stroke="#263238" stroke-linecap="round" stroke-linejoin="round"/>
<path d="M107.079 150.752C106.95 152.207 106.95 153.671 107.079 155.127C107.196 156.278 107.399 157.417 107.685 158.535L109.794 156.23L108.889 159.016L113.628 162.207L116.569 157.436L114.84 155.365C114.84 155.365 117.555 156.958 117.781 156.877C118.007 156.797 117.405 152.899 116.121 150.513C114.836 148.127 111.216 146.679 110.008 147.105C108.8 147.531 106.853 149.559 107.079 150.752Z" fill="#616161" stroke="#263238" stroke-linecap="round" stroke-linejoin="round"/>
<path d="M109.588 153.38C109.588 153.38 112.012 160.937 113.062 160.699C114.113 160.46 114.646 152.345 114.646 152.345C113.915 152.872 113.088 153.237 112.219 153.415C111.349 153.593 110.453 153.581 109.588 153.38Z" fill="white"/>
<mask id="mask4_160_2" style="mask-type:luminance" maskUnits="userSpaceOnUse" x="109" y="152" width="6" height="9">
<path d="M109.588 153.38C109.588 153.38 112.012 160.937 113.062 160.699C114.113 160.46 114.646 152.345 114.646 152.345C113.915 152.872 113.088 153.237 112.219 153.415C111.349 153.593 110.453 153.581 109.588 153.38Z" fill="white"/>
</mask>
<g mask="url(#mask4_160_2)">
<path d="M109.588 153.38C109.588 153.38 112.012 160.937 113.062 160.699C114.113 160.46 114.646 152.345 114.646 152.345C113.915 152.872 113.088 153.237 112.219 153.415C111.349 153.593 110.453 153.581 109.588 153.38Z" fill="#616161"/>
<path opacity="0.53" d="M109.588 153.38C109.588 153.38 112.012 160.937 113.062 160.699C114.113 160.46 114.646 152.345 114.646 152.345C113.915 152.872 113.088 153.237 112.219 153.415C111.349 153.593 110.453 153.581 109.588 153.38Z" fill="white"/>
</g>
<path d="M109.588 153.38C109.588 153.38 112.012 160.937 113.062 160.699C114.113 160.46 114.646 152.345 114.646 152.345C113.915 152.872 113.088 153.237 112.219 153.415C111.349 153.593 110.453 153.581 109.588 153.38Z" stroke="#263238" stroke-linecap="round" stroke-linejoin="round"/>
<path d="M103.382 146.138C103.382 146.138 106.073 151.25 108.138 152.98C110.061 154.594 113.042 155.289 114.472 153.457C115.902 151.625 116.286 147.493 116.209 144.864C116.133 142.236 114.323 140.489 112.287 138.342C110.25 136.195 107.156 133.409 105.12 134.841C103.083 136.272 102.72 144.468 103.382 146.138Z" fill="white"/>
<mask id="mask5_160_2" style="mask-type:luminance" maskUnits="userSpaceOnUse" x="103" y="134" width="14" height="21">
<path d="M103.382 146.138C103.382 146.138 106.073 151.25 108.138 152.98C110.061 154.594 113.042 155.289 114.472 153.457C115.902 151.625 116.286 147.493 116.209 144.864C116.133 142.236 114.323 140.489 112.287 138.342C110.25 136.195 107.156 133.409 105.12 134.841C103.083 136.272 102.72 144.468 103.382 146.138Z" fill="white"/>
</mask>
<g mask="url(#mask5_160_2)">
<path d="M114.472 153.478C114.521 153.418 114.565 153.35 114.609 153.286C113.837 153.62 113.018 153.817 112.185 153.87C109.487 153.993 107.741 151.395 107.741 151.395C107.741 151.395 107.507 151.024 106.101 148.302C104.695 145.58 105.144 138.01 105.144 138.01C105.144 138.01 106.198 139.497 109.131 140.238C110.827 140.671 112.554 140.956 114.294 141.09L114.185 140.379C113.616 139.71 112.973 139.041 112.295 138.329C110.275 136.199 107.164 133.396 105.128 134.828C103.091 136.259 102.704 144.455 103.39 146.125C103.39 146.125 106.081 151.237 108.145 152.967C110.06 154.594 113.042 155.289 114.472 153.478Z" fill="#616161"/>
<path opacity="0.53" d="M114.472 153.478C114.521 153.418 114.565 153.35 114.609 153.286C113.837 153.62 113.018 153.817 112.185 153.87C109.487 153.993 107.741 151.395 107.741 151.395C107.741 151.395 107.507 151.024 106.101 148.302C104.695 145.58 105.144 138.01 105.144 138.01C105.144 138.01 106.198 139.497 109.131 140.238C110.827 140.671 112.554 140.956 114.294 141.09L114.185 140.379C113.616 139.71 112.973 139.041 112.295 138.329C110.275 136.199 107.164 133.396 105.128 134.828C103.091 136.259 102.704 144.455 103.39 146.125C103.39 146.125 106.081 151.237 108.145 152.967C110.06 154.594 113.042 155.289 114.472 153.478Z" fill="white"/>
<path d="M106.323 145.58C106.323 145.58 108.061 146.057 108.747 144.945" stroke="#263238" stroke-linecap="round" stroke-linejoin="round"/>
<path d="M112.21 144.149C112.21 144.149 113.87 144.626 114.549 143.297" stroke="#263238" stroke-linecap="round" stroke-linejoin="round"/>
<path d="M105.12 143.991C105.542 143.587 106.05 143.296 106.602 143.144C107.153 142.991 107.731 142.981 108.287 143.113" stroke="#263238" stroke-linecap="round" stroke-linejoin="round"/>
<path d="M111.531 142.636C111.531 142.636 112.21 141.286 114.399 141.524" stroke="#263238" stroke-linecap="round" stroke-linejoin="round"/>
<path d="M110.477 148.208C110.477 148.208 111.608 148.686 112.06 147.65" stroke="#263238" stroke-linecap="round" stroke-linejoin="round"/>
<path d="M110.396 150.194C110.396 150.194 112.355 150.436 113.187 149.239" stroke="#263238" stroke-linecap="round" stroke-linejoin="round"/>
</g>
<path d="M103.382 146.138C103.382 146.138 106.073 151.25 108.138 152.98C110.061 154.594 113.042 155.289 114.472 153.457C115.902 151.625 116.286 147.493 116.209 144.864C116.133 142.236 114.323 140.489 112.287 138.342C110.25 136.195 107.156 133.409 105.12 134.841C103.083 136.272 102.72 144.468 103.382 146.138Z" stroke="#263238" stroke-linecap="round" stroke-linejoin="round"/>
<path d="M105.346 182.497C105.306 181.539 105.356 180.578 105.495 179.63C105.722 178.352 106.174 177.803 106.174 176.371C106.174 174.94 106.251 174.382 107.156 174.382C108.061 174.382 109.794 174.463 109.871 175.098C109.947 175.732 110.02 176.133 109.644 176.052C109.269 175.971 107.685 175.894 107.685 175.894L107.459 176.529C108.202 176.78 108.931 177.073 109.644 177.406C110.02 177.645 110.097 179.392 110.097 180.35C110.135 180.776 110.036 181.203 109.816 181.563C109.596 181.923 109.268 182.195 108.885 182.335C108.057 182.655 107.301 181.543 107.301 181.543C107.301 181.543 107.455 182.736 106.623 183.132C105.79 183.528 105.12 182.974 105.346 182.497Z" fill="white" stroke="#263238" stroke-linecap="round" stroke-linejoin="round"/>
<path d="M108.78 172.265L107.447 184.444C107.429 184.606 107.445 184.771 107.493 184.926C107.542 185.081 107.622 185.223 107.727 185.343C107.833 185.462 107.962 185.556 108.105 185.618C108.249 185.68 108.403 185.708 108.558 185.701L118.751 185.236C118.976 185.226 119.192 185.141 119.369 184.993C119.546 184.845 119.675 184.643 119.736 184.414L122.908 172.486C122.953 172.317 122.96 172.139 122.929 171.966C122.897 171.793 122.828 171.631 122.726 171.491C122.625 171.352 122.494 171.239 122.343 171.163C122.193 171.086 122.028 171.048 121.861 171.051L109.826 171.251C109.564 171.255 109.313 171.36 109.12 171.547C108.927 171.734 108.806 171.99 108.78 172.265Z" fill="white" stroke="#263238" stroke-linecap="round" stroke-linejoin="round"/>
<path opacity="0.17" d="M109.297 172.755L108.085 183.954C108.068 184.104 108.083 184.255 108.127 184.398C108.172 184.541 108.245 184.672 108.342 184.782C108.44 184.892 108.558 184.979 108.69 185.036C108.822 185.093 108.965 185.119 109.107 185.113L118.48 184.687C118.687 184.677 118.886 184.598 119.049 184.462C119.211 184.326 119.329 184.139 119.385 183.928L122.306 172.972C122.347 172.816 122.354 172.652 122.325 172.493C122.295 172.334 122.231 172.184 122.137 172.056C122.044 171.928 121.923 171.824 121.784 171.754C121.646 171.684 121.494 171.648 121.34 171.651L110.275 171.834C110.033 171.835 109.8 171.929 109.62 172.098C109.44 172.268 109.325 172.501 109.297 172.755Z" fill="black"/>
<path d="M108.994 175.524L108.073 183.954" stroke="#263238" stroke-width="0.75" stroke-linecap="round" stroke-linejoin="round"/>
<path d="M110.909 171.822H110.263C110.023 171.825 109.793 171.92 109.615 172.09C109.438 172.259 109.325 172.491 109.297 172.742L109.156 174.041" stroke="#263238" stroke-width="0.75" stroke-linecap="round" stroke-linejoin="round"/>
<path d="M124.508 179.553C124.508 179.553 123.296 177.645 122.395 177.645C121.494 177.645 117.418 180.107 116.359 180.827C115.301 181.547 116.436 181.858 116.436 181.858C116.375 182.022 116.365 182.202 116.405 182.373C116.446 182.544 116.535 182.697 116.662 182.812C116.871 183.076 117.167 183.248 117.49 183.294C117.636 183.537 117.847 183.73 118.096 183.848C118.532 184.01 118.991 184.09 119.454 184.086C119.454 184.086 119.829 184.406 121.114 184.406C122.399 184.406 123.603 184.325 124.346 183.37C125.089 182.416 125.037 181.462 124.508 179.553Z" fill="white" stroke="#263238" stroke-linecap="round" stroke-linejoin="round"/>
<path d="M116.456 181.858C116.456 181.858 121.304 180.985 122.189 180.031" stroke="#263238" stroke-linecap="round" stroke-linejoin="round"/>
<path d="M117.49 183.298C117.49 183.298 121.413 182.659 122.621 181.943" stroke="#263238" stroke-linecap="round" stroke-linejoin="round"/>
<path d="M119.454 184.086C119.454 184.086 121.878 183.928 122.924 183.451" stroke="#263238" stroke-linecap="round" stroke-linejoin="round"/>
<path d="M97.8718 187.895C97.8718 187.895 113.527 185.658 119.89 186.404" stroke="white" stroke-miterlimit="10"/>
<path d="M118.585 210.792C118.585 210.792 122.928 208.875 129.897 210.792C129.897 210.792 129.19 211.964 124.746 212.922C120.302 213.881 118.585 210.792 118.585 210.792Z" fill="white" stroke="#263238" stroke-linecap="round" stroke-linejoin="round"/>
<path d="M118.933 186.399C118.663 186.569 118.379 186.712 118.084 186.825C117.361 187.102 115.854 187.963 115.256 190.434C114.448 193.735 118.488 202.681 118.993 206.622C119.19 208.45 119.494 210.264 119.902 212.053C119.902 212.053 121.417 212.479 123.942 212.905C126.467 213.331 127.376 211.947 127.376 211.947C127.376 211.947 128.487 202.149 126.871 196.185C125.255 190.221 124.952 187.452 122.831 186.6C121.34 186.02 119.603 185.986 118.933 186.399Z" fill="white"/>
<mask id="mask6_160_2" style="mask-type:luminance" maskUnits="userSpaceOnUse" x="115" y="186" width="13" height="27">
<path d="M118.933 186.399C118.663 186.569 118.379 186.712 118.084 186.825C117.361 187.102 115.854 187.963 115.256 190.434C114.448 193.735 118.488 202.681 118.993 206.622C119.19 208.45 119.494 210.264 119.902 212.053C119.902 212.053 121.417 212.479 123.942 212.905C126.467 213.331 127.376 211.947 127.376 211.947C127.376 211.947 128.487 202.149 126.871 196.185C125.255 190.221 124.952 187.452 122.831 186.6C121.34 186.02 119.603 185.986 118.933 186.399Z" fill="white"/>
</mask>
<g mask="url(#mask6_160_2)">
<path d="M126.843 213.118C126.843 213.118 127.312 203.465 124.73 195.426C122.148 187.388 119.918 187.63 118.04 189.236C116.161 190.842 116.048 194.434 117.103 198.025C118.157 201.616 119.931 205.569 120.153 208.909C120.375 212.249 120.036 214.477 121.328 214.6C122.621 214.724 126.726 215.589 126.843 213.118Z" fill="#616161"/>
<path opacity="0.53" d="M126.843 213.118C126.843 213.118 127.312 203.465 124.73 195.426C122.148 187.388 119.918 187.63 118.04 189.236C116.161 190.842 116.048 194.434 117.103 198.025C118.157 201.616 119.931 205.569 120.153 208.909C120.375 212.249 120.036 214.477 121.328 214.6C122.621 214.724 126.726 215.589 126.843 213.118Z" fill="white"/>
</g>
<path d="M118.933 186.399C118.663 186.569 118.379 186.712 118.084 186.825C117.361 187.102 115.854 187.963 115.256 190.434C114.448 193.735 118.488 202.681 118.993 206.622C119.19 208.45 119.494 210.264 119.902 212.053C119.902 212.053 121.417 212.479 123.942 212.905C126.467 213.331 127.376 211.947 127.376 211.947C127.376 211.947 128.487 202.149 126.871 196.185C125.255 190.221 124.952 187.452 122.831 186.6C121.34 186.02 119.603 185.986 118.933 186.399Z" stroke="#263238" stroke-linecap="round" stroke-linejoin="round"/>
<path d="M118.585 210.792C118.585 210.792 125.554 212.603 129.897 210.792C129.897 210.792 127.372 223.146 125.554 228.578C123.736 234.009 123.837 236.565 123.534 239.547C123.231 242.529 121.514 247.748 119.292 248.6C117.07 249.452 116.868 245.405 118.383 241.464C119.898 237.524 120.504 232.731 119.898 226.98C119.292 221.229 118.585 210.792 118.585 210.792Z" fill="#616161"/>
<mask id="mask7_160_2" style="mask-type:luminance" maskUnits="userSpaceOnUse" x="117" y="210" width="13" height="39">
<path d="M118.585 210.792C118.585 210.792 125.554 212.603 129.897 210.792C129.897 210.792 127.372 223.146 125.554 228.578C123.736 234.009 123.837 236.565 123.534 239.547C123.231 242.529 121.514 247.748 119.292 248.6C117.07 249.452 116.868 245.405 118.383 241.464C119.898 237.524 120.504 232.731 119.898 226.98C119.292 221.229 118.585 210.792 118.585 210.792Z" fill="white"/>
</mask>
<g mask="url(#mask7_160_2)">
<path opacity="0.17" d="M127.663 215.589C128.126 214.161 128.461 212.691 128.665 211.197C125.901 211.9 122.536 211.533 120.476 211.197C120.702 214.579 121.259 223.917 120.973 230.205C120.649 237.426 119.013 240.293 117.741 243.53C117.389 244.795 117.314 246.128 117.522 247.428C118.161 248.012 119.385 247.752 120.613 246.661C122.843 244.68 123.312 237.626 123.546 233.792C123.78 229.958 126.604 218.805 127.663 215.589Z" fill="black"/>
</g>
<path d="M118.585 210.792C118.585 210.792 125.554 212.603 129.897 210.792C129.897 210.792 127.372 223.146 125.554 228.578C123.736 234.009 123.837 236.565 123.534 239.547C123.231 242.529 121.514 247.748 119.292 248.6C117.07 249.452 116.868 245.405 118.383 241.464C119.898 237.524 120.504 232.731 119.898 226.98C119.292 221.229 118.585 210.792 118.585 210.792Z" stroke="#263238" stroke-linecap="round" stroke-linejoin="round"/>
<path d="M125.756 226.341L125.655 236.352L126.463 235.926L125.756 226.341Z" fill="#616161" stroke="#263238" stroke-linecap="round" stroke-linejoin="round"/>
<path d="M125.958 225.276L126.766 234.968L127.473 234.435L125.958 225.276Z" fill="#616161" stroke="#263238" stroke-linecap="round" stroke-linejoin="round"/>
<path d="M115.648 211.414C115.648 211.414 112.315 209.603 104.942 210.881C105.995 212.426 107.539 213.522 109.293 213.97C112.222 214.733 115.648 211.414 115.648 211.414Z" fill="white" stroke="#263238" stroke-linecap="round" stroke-linejoin="round"/>
<path d="M113.628 187.132C113.628 187.132 109.992 185.534 107.366 188.09C104.74 190.646 105.548 196.184 105.75 197.249C105.952 198.314 106.154 199.486 106.154 199.486L106.659 213.011L113.729 213.118C113.729 213.118 115.042 202.361 116.052 197.675C117.062 192.989 117.07 189.386 113.628 187.132Z" fill="white"/>
<mask id="mask8_160_2" style="mask-type:luminance" maskUnits="userSpaceOnUse" x="105" y="186" width="12" height="28">
<path d="M113.628 187.132C113.628 187.132 109.992 185.534 107.366 188.09C104.74 190.646 105.548 196.184 105.75 197.249C105.952 198.314 106.154 199.486 106.154 199.486L106.659 213.011L113.729 213.118C113.729 213.118 115.042 202.361 116.052 197.675C117.062 192.989 117.07 189.386 113.628 187.132Z" fill="white"/>
</mask>
<g mask="url(#mask8_160_2)">
<path d="M112.994 190.114C108.889 188.627 107.952 192.589 107.596 196.052C107.241 199.516 107.245 212.01 107.362 212.756C107.394 212.867 107.449 212.968 107.523 213.054L113.737 213.148C113.737 213.148 115.05 202.391 116.06 197.705C116.129 197.377 116.193 197.054 116.254 196.738C116.278 194.711 115.89 191.145 112.994 190.114Z" fill="#616161"/>
<path opacity="0.53" d="M112.994 190.114C108.889 188.627 107.952 192.589 107.596 196.052C107.241 199.516 107.245 212.01 107.362 212.756C107.394 212.867 107.449 212.968 107.523 213.054L113.737 213.148C113.737 213.148 115.05 202.391 116.06 197.705C116.129 197.377 116.193 197.054 116.254 196.738C116.278 194.711 115.89 191.145 112.994 190.114Z" fill="white"/>
</g>
<path d="M113.628 187.132C113.628 187.132 109.992 185.534 107.366 188.09C104.74 190.646 105.548 196.184 105.75 197.249C105.952 198.314 106.154 199.486 106.154 199.486L106.659 213.011L113.729 213.118C113.729 213.118 115.042 202.361 116.052 197.675C117.062 192.989 117.07 189.386 113.628 187.132Z" stroke="#263238" stroke-linecap="round" stroke-linejoin="round"/>
<path d="M104.95 210.899C104.95 210.899 106.263 221.123 107.576 225.809C108.889 230.495 110.202 236.033 110.202 241.571C110.202 247.109 114.444 249.452 115.555 248.387C116.666 247.322 115.757 241.997 114.848 239.228C113.939 236.459 112.727 229.536 113.131 225.915C113.535 222.294 115.648 211.414 115.648 211.414C115.648 211.414 108.586 211.84 104.95 210.899Z" fill="#616161"/>
<mask id="mask9_160_2" style="mask-type:luminance" maskUnits="userSpaceOnUse" x="104" y="210" width="13" height="39">
<path d="M104.95 210.899C104.95 210.899 106.263 221.123 107.576 225.809C108.889 230.495 110.202 236.033 110.202 241.571C110.202 247.109 114.444 249.452 115.555 248.387C116.666 247.322 115.757 241.997 114.848 239.228C113.939 236.459 112.727 229.536 113.131 225.915C113.535 222.294 115.648 211.414 115.648 211.414C115.648 211.414 108.586 211.84 104.95 210.899Z" fill="white"/>
</mask>
<g mask="url(#mask9_160_2)">
<path opacity="0.17" d="M112.056 223.38C112.525 214.226 114.755 211.503 114.755 211.503L114.557 211.478C112.056 211.587 109.551 211.52 107.059 211.278C107.216 213.651 107.794 221.182 109.079 227.513C110.638 235.138 110.4 239.466 111.576 242.929C112.751 246.393 115.212 248.996 115.212 246.146C115.212 243.296 111.608 232.539 112.056 223.38Z" fill="black"/>
</g>
<path d="M104.95 210.899C104.95 210.899 106.263 221.123 107.576 225.809C108.889 230.495 110.202 236.033 110.202 241.571C110.202 247.109 114.444 249.452 115.555 248.387C116.666 247.322 115.757 241.997 114.848 239.228C113.939 236.459 112.727 229.536 113.131 225.915C113.535 222.294 115.648 211.414 115.648 211.414C115.648 211.414 108.586 211.84 104.95 210.899Z" stroke="#263238" stroke-linecap="round" stroke-linejoin="round"/>
<path d="M107.273 223.892L106.869 234.435L107.374 234.648L107.273 223.892Z" fill="#616161" stroke="#263238" stroke-linecap="round" stroke-linejoin="round"/>
<path d="M107.576 224.318L107.98 234.861L108.788 234.116L107.576 224.318Z" fill="#616161" stroke="#263238" stroke-linecap="round" stroke-linejoin="round"/>
<path d="M105.572 136.033C105.572 136.033 103.532 143.113 104.966 149.163C106.4 155.212 105.722 161.968 105.572 165.708C105.423 169.449 104.138 172.55 101.27 174.94C98.4011 177.33 94.5551 176.925 91.6867 174.859C88.8183 172.793 87.9173 166.901 89.501 162.765C91.0847 158.628 95.0075 151.391 96.1387 147.65C97.2699 143.91 96.5912 142.002 96.8942 138.5C97.1972 134.998 99.1566 128.634 103.233 127.202C107.309 125.771 112.06 125.852 115.305 130.465C118.549 135.079 118.852 142.159 119.151 144.468C119.45 146.777 120.363 147.569 122.168 147.97C123.974 148.37 123.679 149.716 122.322 149.878C120.965 150.04 117.434 149.056 116.456 147.701C115.478 146.347 116.286 144.23 114.626 142.163C112.965 140.097 107.233 139.296 105.572 136.033Z" fill="#263238" stroke="#263238" stroke-linecap="round" stroke-linejoin="round"/>
<path d="M104.029 163.613C104.086 166.624 103.888 169.202 103.221 170.642C101.258 174.94 98.373 174.902 94.939 174.263" stroke="white" stroke-linecap="round" stroke-linejoin="round"/>
<path d="M105.572 136.033C105.572 136.033 101.819 140.396 102.425 146.147C102.76 149.337 103.576 155.212 103.9 160.541" stroke="white" stroke-linecap="round" stroke-linejoin="round"/>
<path d="M93.1654 165.146C92.1473 166.113 91.5171 165.53 91.5171 165.53" stroke="white" stroke-linecap="round" stroke-linejoin="round"/>
<path d="M96.769 145.934C96.769 145.934 97.577 155.519 95.355 161.27C95.0286 162.145 94.6341 162.989 94.1753 163.796" stroke="white" stroke-linecap="round" stroke-linejoin="round"/>
<path d="M115.624 134.798C114.275 133.319 112.448 132.428 110.505 132.302C105.253 131.876 105.12 134.858 105.12 134.858C105.12 134.858 103.031 129.976 110.505 129.746" stroke="white" stroke-linecap="round" stroke-linejoin="round"/>
<path d="M117.373 137.627C117.201 137.161 116.986 136.714 116.731 136.293" stroke="white" stroke-linecap="round" stroke-linejoin="round"/>
<defs>
<clipPath id="clip0_160_2">
<rect width="213" height="200" fill="white" transform="translate(0 36)"/>
</clipPath>
<clipPath id="clip1_160_2">
<rect width="140" height="204.04" fill="white" transform="translate(2)"/>
</clipPath>
</defs>
</svg>
